<?xml version="1.0" encoding="UTF-8" standalone="no"?>
<!-- Created with Inkscape (http://www.inkscape.org/) -->

<svg
   xmlns:dc="http://purl.org/dc/elements/1.1/"
   xmlns:cc="http://creativecommons.org/ns#"
   xmlns:rdf="http://www.w3.org/1999/02/22-rdf-syntax-ns#"
   xmlns:svg="http://www.w3.org/2000/svg"
   xmlns="http://www.w3.org/2000/svg"
   xmlns:sodipodi="http://sodipodi.sourceforge.net/DTD/sodipodi-0.dtd"
   xmlns:inkscape="http://www.inkscape.org/namespaces/inkscape"
   width="570"
   height="130"
   viewBox="0 0 150.8125 34.395834"
   version="1.1"
   id="svg8"
   inkscape:version="0.92.4 (5da689c313, 2019-01-14)"
   sodipodi:docname="allgore-title.svg">
  <defs
     id="defs2" />
  <sodipodi:namedview
     id="base"
     pagecolor="#ffffff"
     bordercolor="#666666"
     borderopacity="1.0"
     inkscape:pageopacity="0.0"
     inkscape:pageshadow="2"
     inkscape:zoom="1.4"
     inkscape:cx="283.3543"
     inkscape:cy="112.6663"
     inkscape:document-units="mm"
     inkscape:current-layer="layer1"
     showgrid="true"
     units="px"
     inkscape:window-width="1920"
     inkscape:window-height="986"
     inkscape:window-x="-11"
     inkscape:window-y="-11"
     inkscape:window-maximized="1">
    <inkscape:grid
       type="xygrid"
       id="grid868"
       spacingy="17.197917" />
  </sodipodi:namedview>
  <metadata
     id="metadata5">
    <rdf:RDF>
      <cc:Work
         rdf:about="">
        <dc:format>image/svg+xml</dc:format>
        <dc:type
           rdf:resource="http://purl.org/dc/dcmitype/StillImage" />
        <dc:title></dc:title>
      </cc:Work>
    </rdf:RDF>
  </metadata>
  <g
     inkscape:label="Layer 1"
     inkscape:groupmode="layer"
     id="layer1"
     transform="translate(0,-262.6375)">
    <path
       inkscape:connector-curvature="0"
       id="path829"
       style="fill:#000000;fill-opacity:1;stroke:none;stroke-width:0.8792184;stroke-linecap:butt;stroke-miterlimit:4;stroke-dasharray:none;stroke-opacity:1"
       d="m 111.29826,293.96365 c -0.27665,-1.1289 -0.93709,-2.70161 -1.48188,-3.52886 -0.74301,-1.12818 -1.04102,-1.97481 -1.22128,-3.46961 -0.27085,-2.24594 -0.50899,-2.41892 -2.54489,-1.84867 -1.04875,0.29376 -1.3392,0.57157 -2.17441,2.07977 -0.89961,1.62449 -1.03659,1.74261 -2.05151,1.76911 -3.588882,0.0937 -5.946672,-0.34721 -8.707442,-1.62832 -3.08092,-1.42967 -4.67195,-3.00582 -6.19681,-6.1388 -2.33576,-4.79907 -2.72467,-7.20799 -1.1637,-7.20799 0.57819,0 0.79268,-0.29197 1.34565,-1.8317 0.82126,-2.28682 1.02012,-2.50608 1.70818,-1.8834 0.71022,0.64275 1.0223,0.61978 1.69617,-0.12485 0.97351,-1.07571 2.15846,-1.49157 4.33675,-1.52197 2.24733,-0.0314 4.52758,0.59082 6.095712,1.66325 0.78416,0.53628 2.56691,3.15026 3.42198,5.0175 1.16052,2.53429 1.28946,3.10802 1.13393,5.04557 -0.20283,2.52682 0.0482,3.01393 1.55342,3.01393 h 1.16198 v -4.39428 -4.39429 l -1.46536,-2.99185 c -0.80595,-1.64552 -1.46537,-3.10302 -1.46537,-3.23889 0,-0.13587 0.44168,-0.16417 0.98152,-0.0629 l 0.98151,0.18414 0.26405,-1.85603 0.26404,-1.85602 2.02792,-0.174 c 1.77366,-0.15219 2.11138,-0.27866 2.69349,-1.00869 l 0.66554,-0.83468 2.72837,0.49261 c 1.50061,0.27094 3.60468,0.75988 4.67572,1.08653 2.30954,0.70439 4.87802,2.4695 5.11553,3.5155 0.34834,1.5341 0.36525,1.5486 1.61085,1.38153 1.40504,-0.18845 2.2489,-0.86238 2.37326,-1.89532 0.14788,-1.2286 0.90982,-1.46985 1.93028,-0.61119 0.8126,0.68375 1.17266,0.75201 4.91309,0.9314 2.21994,0.10647 5.18265,0.19358 6.58384,0.19358 3.2073,0 5.20818,0.63419 4.12092,1.30615 -0.14992,0.0927 -0.3634,0.89547 -0.47442,1.78405 -0.13962,1.11747 -0.3659,1.70339 -0.73393,1.90035 -0.29264,0.15662 -2.89785,0.28476 -5.78935,0.28476 h -5.25729 l -0.14161,1.47365 c -0.19794,2.05999 0.0155,3.01116 0.61731,2.75044 0.26151,-0.11329 1.46459,-0.23476 2.67351,-0.26992 1.20893,-0.0352 3.07301,-0.16168 4.14239,-0.28113 3.21723,-0.35938 4.01205,0.30092 2.29405,1.90577 -0.94921,0.8867 -2.10488,1.19943 -6.40489,1.73323 -1.35276,0.16793 -2.62523,0.44283 -2.82774,0.61088 -0.20249,0.16806 -0.43688,0.79507 -0.52083,1.39336 -0.0839,0.59829 -0.24458,1.45048 -0.35694,1.89375 l -0.20431,0.80595 3.18469,-8.7e-4 c 1.7516,-5.9e-4 4.37166,-0.21151 5.82236,-0.46889 2.26416,-0.40169 2.98377,-0.41503 5.08187,-0.0943 l 2.44422,0.37368 -0.17964,0.90116 c -0.0988,0.49564 -0.5729,1.29489 -1.05351,1.77612 l -0.87385,0.87496 -7.3987,0.19607 c -4.0693,0.10783 -7.43168,0.20866 -7.47199,0.22406 -0.0403,0.0154 -0.0733,0.27561 -0.0733,0.57825 0,0.30264 -0.19877,0.71523 -0.44173,0.91687 -0.37176,0.30853 -0.49067,0.22622 -0.75067,-0.51964 -0.33018,-0.94714 -1.06204,-1.23993 -3.34287,-1.33734 -1.13395,-0.0484 -1.16986,-0.02 -1.3492,1.06917 -0.29331,1.78122 -0.74878,2.04554 -2.32156,1.34723 -0.94958,-0.4216 -2.85239,-2.1415 -6.79603,-6.14276 -3.80182,-3.85736 -5.54991,-5.44484 -5.71492,-5.18986 -0.13075,0.20204 -0.25863,3.92819 -0.2842,8.28032 -0.0394,6.70444 -0.11234,7.9264 -0.4777,8.00095 -0.31193,0.0636 -0.56929,-0.47543 -0.9303,-1.94855 z m 18.11215,-6.95901 c 0.77983,-0.27428 1.49252,-0.69321 1.58375,-0.93095 0.0912,-0.23775 -0.0539,-1.37227 -0.3226,-2.52116 -0.26868,-1.14889 -0.48682,-2.57456 -0.48474,-3.16816 0.003,-0.82381 -0.13498,-1.12331 -0.5824,-1.26531 -0.78102,-0.24789 -0.73876,-0.57261 0.15964,-1.22706 0.74262,-0.54095 0.74435,-0.5526 0.40648,-2.73017 -0.43706,-2.81697 -0.71589,-3.51613 -1.40219,-3.51613 -0.30664,0 -0.7217,-0.19782 -0.92236,-0.43961 -1.05952,-1.27663 -1.89738,0.25864 -1.64971,3.02283 l 0.16581,1.85053 -1.00707,0.42078 c -0.5539,0.23143 -1.26551,0.42078 -1.58137,0.42078 -0.31586,0 -0.81955,0.3118 -1.11932,0.6929 -0.29976,0.38109 -0.96875,0.91201 -1.48663,1.17981 -0.51788,0.26781 -0.94161,0.65335 -0.94161,0.85676 0,0.57662 2.64676,3.00272 4.02976,3.69379 0.68506,0.34232 1.24555,0.74784 1.24555,0.90116 0,0.15332 0.3293,1.02337 0.73178,1.93344 0.57295,1.29554 0.84329,1.61884 1.24556,1.48956 0.28258,-0.0908 1.15184,-0.38951 1.93167,-0.66379 z m -28.88275,-3.99899 c 1.51683,-0.6004 1.68317,-0.75342 1.76706,-1.62548 0.11948,-1.2422 -0.69299,-5.16975 -1.34516,-6.50256 -0.87723,-1.79273 -3.949772,-2.86736 -5.985432,-2.0934 -0.86645,0.32943 -3.43179,3.57631 -3.93221,4.9769 -0.69851,1.95502 -0.52781,2.72611 0.81963,3.70253 3.6215,2.6243 3.47924,2.56059 5.30577,2.37609 0.93274,-0.0942 2.44939,-0.46955 3.370342,-0.83408 z m 16.38832,-10.041 2.21985,-1.02564 -0.16955,-1.64287 c -0.0932,-0.90358 -0.22121,-1.69453 -0.28436,-1.75766 -0.27438,-0.27439 -5.37727,-0.61949 -5.94853,-0.40229 -0.70079,0.26644 -1.0067,1.32266 -1.00588,3.47288 5.3e-4,1.1649 0.11376,1.4238 0.80595,1.84154 1.20115,0.72491 1.9388,0.64311 4.38252,-0.48596 z m -36.384652,17.3725 c -0.25092,-0.35825 -0.45623,-1.00151 -0.45623,-1.42948 0,-1.11029 -0.6945,-1.61429 -1.63436,-1.18605 -0.40579,0.18488 -1,0.33616 -1.32046,0.33616 -0.32047,0 -0.89954,0.20762 -1.28683,0.46138 -0.65104,0.42658 -0.80905,0.41498 -2.09495,-0.15384 -0.76494,-0.33836 -2.29917,-0.80461 -3.4094,-1.0361 -1.11024,-0.23149 -2.72641,-0.75574 -3.59151,-1.165 -0.86509,-0.40925 -1.8481,-0.7441 -2.18445,-0.7441 -0.93971,0 -1.18319,-1.10624 -1.18319,-5.37579 0,-3.5096 -0.0549,-3.91928 -0.58614,-4.37414 -0.32238,-0.27603 -0.58615,-0.62753 -0.58615,-0.78111 0,-0.15358 0.721,-1.058 1.60222,-2.00982 0.88121,-0.95182 1.73704,-2.08522 1.90184,-2.51868 0.21752,-0.57212 0.81062,-1.01736 2.16418,-1.62466 1.02549,-0.46011 1.9509,-1.06162 2.05645,-1.33668 0.17071,-0.44485 0.62088,-0.48753 4.07331,-0.38616 3.81312,0.11197 3.91491,0.1325 5.78637,1.16738 1.04774,0.57937 2.30062,1.14475 2.7842,1.2564 0.98656,0.22779 1.90497,0.94417 1.90497,1.48593 0,0.1972 -0.5166,0.48967 -1.148,0.64994 -0.9973,0.25314 -1.64174,0.13874 -4.90897,-0.87139 -2.06854,-0.63952 -4.38162,-1.18323 -5.14018,-1.20823 -1.26539,-0.0417 -1.49058,0.0634 -2.72871,1.27337 -0.74222,0.72536 -1.59697,1.71663 -1.89943,2.20282 -0.67349,1.08261 -1.07262,4.91712 -0.63016,6.05412 0.35086,0.90162 5.12519,4.85809 6.03159,4.99836 1.01143,0.15652 3.16576,-0.33144 3.73411,-0.84579 0.37875,-0.34277 0.53522,-0.90186 0.53522,-1.91247 v -1.4281 l -1.84863,0.18939 -1.84863,0.1894 -1.22864,-1.46747 c -0.67575,-0.8071 -1.22863,-1.61936 -1.22863,-1.805 0,-0.18564 0.29147,-0.73177 0.64771,-1.21361 0.60341,-0.81615 0.73826,-0.8625 1.97157,-0.67755 0.72812,0.10919 2.30135,0.50876 3.49606,0.88794 2.60007,0.82522 2.6552,0.82832 3.14115,0.17654 0.35642,-0.47804 0.43824,-0.45773 1.2046,0.299 0.7891,0.77919 0.82615,0.94444 0.91984,4.10302 0.0833,2.80682 0.18422,3.38435 0.68607,3.92455 l 0.58844,0.6334 -0.88027,0.78432 c -0.63071,0.56197 -1.02781,1.33788 -1.40072,2.73693 -0.667,2.50236 -1.16753,2.9369 -2.00526,1.74087 z M 2.2372757,296.1172 c -0.373041,-0.56934 -0.43523,-1.09209 -0.278832,-2.34385 0.189815,-1.51923 0.160929,-1.62644 -0.506618,-1.88024 -0.87992599,-0.33455 -1.51734596,-1.79381 -1.25676899,-2.87716 0.107372,-0.4464 1.03070799,-2.78988 2.05185699,-5.20773 1.0211481,-2.41785 2.1557821,-5.18739 2.5214071,-6.15453 0.365626,-0.96714 1.5427,-3.60479 2.61572,-5.86145 1.505461,-3.16613 2.294689,-4.45536 3.4563292,-5.64603 1.419822,-1.4553 3.011722,-2.22705 3.376456,-1.6369 0.0848,0.13721 0.433965,1.81218 0.77592,3.72215 0.701609,3.91882 2.441681,9.61066 3.106877,10.16273 0.295111,0.24492 0.935909,0.30701 1.940512,0.18803 0.824946,-0.0977 1.535727,-0.21471 1.579513,-0.26001 0.04379,-0.0453 0.194199,-2.76738 0.33425,-6.04905 l 0.254636,-5.96668 0.871565,-0.69038 c 0.479363,-0.3797 1.285316,-1.02473 1.791008,-1.4334 0.505695,-0.40867 1.019971,-0.74304 1.142837,-0.74304 0.213322,0 0.06597,6.91788 -0.344838,16.18929 l -0.191407,4.31984 0.995421,0.41575 c 1.566697,0.65435 5.552383,1.39208 6.45263,1.19435 0.449509,-0.0987 0.889035,-0.40557 0.976731,-0.68187 0.08769,-0.2763 0.535202,-0.72433 0.99446,-0.99562 0.79434,-0.46923 0.844325,-0.62442 1.026131,-3.1857 0.105114,-1.48084 0.204261,-5.07904 0.220329,-7.996 0.01606,-2.91695 0.120576,-5.63178 0.232241,-6.03294 0.111665,-0.40117 0.659019,-1.02018 1.216345,-1.37559 0.557324,-0.35541 1.366747,-0.91977 1.798717,-1.25412 0.431969,-0.33436 0.858409,-0.48979 0.947645,-0.3454 0.149423,0.24177 0.0632,3.61827 -0.22183,8.68673 -0.547102,9.72867 -0.557265,11.16963 -0.08214,11.64476 0.479676,0.47968 3.256801,1.21054 5.919851,1.55795 1.983581,0.25877 2.450459,0.93757 1.595889,2.32029 -0.333607,0.53978 -0.702799,1.75194 -0.820438,2.69368 -0.23957,1.91793 -0.721439,2.16109 -0.944092,0.47642 l -0.146539,-1.10873 -1.674961,-0.18002 c -0.921239,-0.099 -2.072838,-0.34483 -2.559126,-0.54625 -1.307071,-0.54141 -1.675686,-0.25248 -1.83841,1.44099 -0.16973,1.76643 -0.354359,2.02186 -1.11714,1.5455 -0.312859,-0.19538 -0.891222,-0.35524 -1.28524,-0.35524 -0.640186,0 -0.759513,-0.19488 -1.1216,-1.83171 -0.395333,-1.7871 -0.429729,-1.83357 -1.412354,-1.90819 -1.390322,-0.1056 -1.761487,0.22562 -1.926783,1.71941 -0.220131,1.98942 -0.385376,2.60663 -0.697852,2.60663 -0.15812,0 -0.289512,-0.42862 -0.291981,-0.95249 -0.0065,-1.37751 -0.242517,-1.5743 -2.151107,-1.79351 -0.943793,-0.1084 -1.957216,-0.32619 -2.252046,-0.48398 -1.291872,-0.69139 -1.67714,-0.39196 -1.893424,1.47154 -0.167038,1.43922 -0.30213,1.75844 -0.744162,1.75844 -0.297041,0 -0.62158,-0.13188 -0.721201,-0.29307 -0.09962,-0.16119 -0.483048,-0.29307 -0.852061,-0.29307 -0.510621,0 -0.780956,-0.28011 -1.131418,-1.1723 -0.26669,-0.67893 -0.655421,-1.17229 -0.923674,-1.17229 -0.563428,0 -0.563871,0.0386 -0.02358,2.05151 0.237959,0.88655 0.434218,2.10232 0.43613,2.70173 0.0048,1.50289 -0.600761,1.20399 -1.657272,-0.81804 -0.852685,-1.63193 -1.053256,-1.73654 -2.698709,-1.40745 -0.833751,0.16675 -0.915852,0.28343 -0.915852,1.30154 0,1.59465 -0.503722,1.71314 -1.650312,0.38821 l -0.986761,-1.14023 0.189534,-4.79165 c 0.155696,-3.93613 0.116399,-4.83796 -0.220096,-5.05102 -0.225297,-0.14265 -1.184996,-0.26139 -2.132667,-0.26386 l -1.7230372,-0.004 0.203586,2.12478 c 0.111973,1.16863 0.4062792,3.02786 0.6540132,4.13164 0.442382,1.97101 0.279736,2.86421 -0.440499,2.41908 -0.3219622,-0.19899 -1.0508342,-3.21843 -1.3690592,-5.6715 -0.137907,-1.06306 -0.331962,-1.53863 -0.627836,-1.53863 -0.475033,0 -1.601784,2.3546 -2.443213,5.10565 -0.299695,0.97986 -0.955571,3.13336 -1.457503,4.78556 -0.501932,1.65219 -1.036665,3.00399 -1.188296,3.00399 -0.151631,0 -0.4917491,-0.32974 -0.7558171,-0.73276 z M 20.888957,283.8007 c 0.737457,-0.38136 0.864663,-0.61849 0.864663,-1.6119 0,-1.33813 -0.285604,-1.43516 -1.695009,-0.57585 -1.152116,0.70244 -1.391437,1.21016 -0.954902,2.02583 0.389163,0.72716 0.646968,0.75054 1.785248,0.16192 z m -7.9939,-6.44008 c 0.08358,-1.22233 -0.667846,-3.09729 -1.323913,-3.30344 -0.506751,-0.15922 -0.95429,1.16988 -0.95429,2.83407 0,1.65931 0.139261,1.84334 1.308295,1.72882 0.81227,-0.0796 0.896731,-0.18924 0.969908,-1.25945 z" />
  </g>
</svg>
