<?xml version="1.0" encoding="UTF-8" standalone="no"?>
<!-- Created with Inkscape (http://www.inkscape.org/) -->

<svg
   preserveAspectRatio="none"
   width="100%"
   height="100%"
   style="vertical-align: bottom;"
   viewBox="0 0 158.75 158.75"
   version="1.1"
   id="svg4"
   sodipodi:docname="allgore-logo.svg"
   inkscape:version="1.1.1 (3bf5ae0d25, 2021-09-20)"
   xmlns:inkscape="http://www.inkscape.org/namespaces/inkscape"
   xmlns:sodipodi="http://sodipodi.sourceforge.net/DTD/sodipodi-0.dtd"
   xmlns="http://www.w3.org/2000/svg"
   xmlns:svg="http://www.w3.org/2000/svg">
  <defs
     id="defs8" />
  <sodipodi:namedview
     id="namedview6"
     pagecolor="#ffffff"
     bordercolor="#666666"
     borderopacity="1.0"
     inkscape:pageshadow="2"
     inkscape:pageopacity="0.0"
     inkscape:pagecheckerboard="0"
     showgrid="false"
     inkscape:zoom="2.4251969"
     inkscape:cx="38.553571"
     inkscape:cy="62.675325"
     inkscape:window-width="1920"
     inkscape:window-height="974"
     inkscape:window-x="-11"
     inkscape:window-y="-11"
     inkscape:window-maximized="1"
     inkscape:current-layer="svg4" />
  <path
     style="fill:#ff0000"
     d="m 118.79584,142.93792 c -1.40365,-2.00397 -2.5521,-5.60235 -2.5521,-7.99638 0,-6.21084 -3.88498,-9.0302 -9.14252,-6.6347 -2.26994,1.03425 -5.59389,1.8805 -7.386567,1.8805 -1.79266,0 -5.031935,1.16141 -7.198376,2.58087 -3.641897,2.3863 -4.525803,2.3214 -11.718983,-0.86054 -4.279002,-1.89276 -12.861382,-4.50093 -19.07194,-5.79587 -6.210548,-1.29494 -15.251313,-4.22754 -20.090587,-6.51686 -4.839275,-2.28939 -10.338116,-4.16246 -12.219634,-4.16246 -5.256648,0 -6.618661,-6.1882 -6.618661,-30.07175 0,-19.632411 -0.307067,-21.924065 -3.278844,-24.468562 -1.803371,-1.544107 -3.278857,-3.510356 -3.278857,-4.369481 0,-0.859126 4.033189,-5.91837 8.96265,-11.242785 4.929449,-5.324355 9.716903,-11.664558 10.638766,-14.089258 1.216791,-3.200403 4.534537,-5.691044 12.106222,-9.088225 5.736558,-2.573818 10.913212,-5.938611 11.503658,-7.47732 0.954907,-2.488432 3.473157,-2.727167 22.785772,-2.16008 21.330241,0.626279 21.899681,0.741168 32.368481,6.530172 5.86094,3.240949 12.86948,6.403689 15.57455,7.028251 5.51878,1.274211 10.65626,5.281538 10.65626,8.312154 0,1.103135 -2.88983,2.739189 -6.42183,3.635669 -5.57879,1.416029 -9.18375,0.776134 -27.46038,-4.874426 -11.571215,-3.577459 -24.510396,-6.618931 -28.753741,-6.758785 -7.078495,-0.233092 -8.338193,0.354544 -15.264173,7.123143 -4.151942,4.057627 -8.93331,9.602682 -10.625265,12.322427 -3.767446,6.056015 -6.000142,27.505927 -3.525061,33.86625 1.962681,5.043602 28.66987,27.175716 33.740243,27.960376 5.657822,0.87556 17.708987,-1.85406 20.888277,-4.73126 2.11872,-1.91742 2.99398,-5.044944 2.99398,-10.698198 v -7.988707 l -10.341096,1.059522 -10.341083,1.059461 -6.872879,-8.20892 c -3.780089,-4.514853 -6.872877,-9.058536 -6.872877,-10.097019 0,-1.038482 1.630462,-4.093449 3.623249,-6.788842 3.375407,-4.565523 4.129787,-4.824745 11.028795,-3.790188 4.07306,0.610944 12.873564,2.845985 19.556691,4.967115 14.54458,4.616186 14.85299,4.633484 17.57135,0.987509 1.99377,-2.674108 2.45144,-2.560507 6.73843,1.672613 4.41413,4.358682 4.62137,5.283073 5.14549,22.951936 0.46576,15.701068 1.03052,18.931778 3.8378,21.953618 l 3.29168,3.54317 -4.92412,4.38745 c -3.52814,3.1436 -5.7495,7.48394 -7.83553,15.31016 -3.73113,13.99799 -6.53103,16.42876 -11.21724,9.73825 z"
     id="path2" />
</svg>
