<?xml version="1.0" encoding="UTF-8" standalone="no"?>
<!-- Created with Inkscape (http://www.inkscape.org/) -->

<svg xmlns="http://www.w3.org/2000/svg" preserveAspectRatio="none" width="100%" height="100%" style="vertical-align: bottom;" viewBox="0 0 150.8125 34.395834">

<path "fill:#000000;" d="m 111.16209,31.509033 c -0.27665,-1.1289 -0.93709,-2.70161 -1.48188,-3.52886 -0.743,-1.12818 -1.04102,-1.97481 -1.22128,-3.46961 -0.27084,-2.24594 -0.50899,-2.41892 -2.54489,-1.84867 -1.04875,0.29376 -1.33919,0.57157 -2.1744,2.07977 -0.89961,1.62449 -1.03659,1.74261 -2.05152,1.76911 -3.588879,0.0937 -5.946669,-0.34721 -8.707439,-1.62832 -3.08092,-1.42967 -4.67195,-3.00582 -6.19681,-6.1388 -2.33576,-4.79907 -2.72467,-7.20799 -1.1637,-7.20799 0.57819,0 0.79268,-0.29197 1.34565,-1.8316997 0.82126,-2.28682 1.02012,-2.50608 1.70818,-1.8834 0.71022,0.64275 1.0223,0.61978 1.69617,-0.12485 0.97351,-1.07571 2.15846,-1.49157 4.33675,-1.52197 2.24733,-0.0314 4.52758,0.59082 6.095719,1.66325 0.78415,0.53628 2.5669,3.1502597 3.42197,5.0174997 1.16052,2.53429 1.28946,3.10802 1.13393,5.04557 -0.20283,2.52682 0.0482,3.01393 1.55343,3.01393 h 1.16197 v -4.39428 -4.39429 l -1.46536,-2.9918497 c -0.80595,-1.64552 -1.46536,-3.10302 -1.46536,-3.23889 0,-0.13587 0.44167,-0.16417 0.98151,-0.0629 l 0.98151,0.18414 0.26406,-1.85603 0.26403,-1.85602 2.02792,-0.174 c 1.77366,-0.15219 2.11138,-0.27866 2.69349,-1.00869 l 0.66554,-0.83467997 2.72837,0.49261 c 1.50062,0.27093997 3.60469,0.75987997 4.67572,1.08652997 2.30954,0.70439 4.87802,2.4695 5.11553,3.5155 0.34834,1.5341 0.36525,1.5486 1.61085,1.38153 1.40505,-0.18845 2.2489,-0.86238 2.37326,-1.89532 0.14788,-1.2286 0.90982,-1.46985 1.93028,-0.61119 0.8126,0.68375 1.17266,0.75201 4.9131,0.9314 2.21993,0.10647 5.18265,0.19358 6.58383,0.19358 3.2073,0 5.20818,0.63419 4.12092,1.30615 -0.14991,0.0927 -0.3634,0.89547 -0.47442,1.78405 -0.13962,1.11747 -0.3659,1.7033897 -0.73393,1.9003497 -0.29264,0.15662 -2.89784,0.28476 -5.78935,0.28476 h -5.25729 l -0.14161,1.47365 c -0.19794,2.05999 0.0155,3.01116 0.61731,2.75044 0.26152,-0.11329 1.46459,-0.23476 2.67352,-0.26992 1.20892,-0.0352 3.073,-0.16168 4.14239,-0.28113 3.21722,-0.35938 4.01205,0.30092 2.29404,1.90577 -0.9492,0.8867 -2.10487,1.19943 -6.40489,1.73323 -1.35275,0.16793 -2.62523,0.44283 -2.82774,0.61088 -0.20249,0.16806 -0.43688,0.79507 -0.52082,1.39336 -0.0839,0.59829 -0.24459,1.45048 -0.35695,1.89375 l -0.2043,0.80595 3.18468,-8.7e-4 c 1.7516,-5.9e-4 4.37166,-0.21151 5.82236,-0.46889 2.26417,-0.40169 2.98377,-0.41503 5.08187,-0.0943 l 2.44423,0.37368 -0.17965,0.90116 c -0.0988,0.49564 -0.5729,1.29489 -1.05351,1.77612 l -0.87385,0.87496 -7.3987,0.19607 c -4.0693,0.10783 -7.43168,0.20866 -7.47199,0.22406 -0.0403,0.0154 -0.0733,0.27561 -0.0733,0.57825 0,0.30264 -0.19877,0.71523 -0.44173,0.91687 -0.37176,0.30853 -0.49067,0.22622 -0.75067,-0.51964 -0.33017,-0.94714 -1.06204,-1.23993 -3.34287,-1.33734 -1.13394,-0.0484 -1.16986,-0.02 -1.3492,1.06917 -0.29331,1.78122 -0.74878,2.04554 -2.32156,1.34723 -0.94958,-0.4216 -2.85238,-2.1415 -6.79603,-6.14276 -3.80181,-3.85736 -5.54991,-5.44484 -5.71492,-5.18986 -0.13075,0.20204 -0.25863,3.92819 -0.2842,8.28032 -0.0394,6.70444 -0.11234,7.9264 -0.4777,8.00095 -0.31193,0.0636 -0.56929,-0.47543 -0.93029,-1.94855 z m 18.11215,-6.95901 c 0.77983,-0.27428 1.49252,-0.69321 1.58376,-0.93095 0.0912,-0.23775 -0.0539,-1.37227 -0.32261,-2.52116 -0.26867,-1.14889 -0.48682,-2.57456 -0.48474,-3.16816 0.003,-0.82381 -0.13498,-1.12331 -0.58239,-1.26531 -0.78103,-0.24789 -0.73877,-0.57261 0.15963,-1.22706 0.74262,-0.54095 0.74435,-0.5526 0.40648,-2.73017 -0.43706,-2.8169697 -0.71588,-3.5161297 -1.40218,-3.5161297 -0.30665,0 -0.72171,-0.19782 -0.92237,-0.43961 -1.05951,-1.27663 -1.89738,0.25864 -1.6497,3.0228297 l 0.1658,1.85053 -1.00707,0.42078 c -0.5539,0.23143 -1.26551,0.42078 -1.58137,0.42078 -0.31586,0 -0.81955,0.3118 -1.11932,0.6929 -0.29975,0.38109 -0.96875,0.91201 -1.48663,1.17981 -0.51788,0.26781 -0.94161,0.65335 -0.94161,0.85676 0,0.57662 2.64676,3.00272 4.02976,3.69379 0.68506,0.34232 1.24555,0.74784 1.24555,0.90116 0,0.15332 0.32931,1.02337 0.73178,1.93344 0.57295,1.29554 0.84329,1.61884 1.24556,1.48956 0.28258,-0.0908 1.15184,-0.38951 1.93167,-0.66379 z m -28.88275,-3.99899 c 1.51683,-0.6004 1.68318,-0.75342 1.76706,-1.62548 0.11948,-1.2422 -0.69298,-5.16975 -1.34516,-6.50256 -0.877229,-1.79273 -3.949769,-2.8673597 -5.985429,-2.0934 -0.86645,0.32943 -3.43179,3.57631 -3.93221,4.9769 -0.69851,1.95502 -0.52781,2.72611 0.81963,3.70253 3.6215,2.6243 3.47924,2.56059 5.30577,2.37609 0.93274,-0.0942 2.44939,-0.46955 3.370339,-0.83408 z m 16.38833,-10.041 2.21984,-1.0256397 -0.16955,-1.64287 c -0.0932,-0.90358 -0.22121,-1.69453 -0.28435,-1.75766 -0.27439,-0.27439 -5.37727,-0.61949 -5.94854,-0.40229 -0.70078,0.26644 -1.0067,1.32266 -1.00588,3.47288 5.3e-4,1.1648997 0.11376,1.4237997 0.80595,1.8415397 1.20115,0.72491 1.9388,0.64311 4.38253,-0.48596 z m -36.384659,17.3725 c -0.25092,-0.35825 -0.45623,-1.00151 -0.45623,-1.42948 0,-1.11029 -0.6945,-1.61429 -1.63436,-1.18605 -0.40579,0.18488 -1,0.33616 -1.32046,0.33616 -0.32047,0 -0.89954,0.20762 -1.28683,0.46138 -0.65104,0.42658 -0.80905,0.41498 -2.09495,-0.15384 -0.76494,-0.33836 -2.29917,-0.80461 -3.4094,-1.0361 -1.11024,-0.23149 -2.72641,-0.75574 -3.59151,-1.165 -0.86509,-0.40925 -1.8481,-0.7441 -2.18445,-0.7441 -0.93971,0 -1.18319,-1.10624 -1.18319,-5.37579 0,-3.5096 -0.0549,-3.91928 -0.58614,-4.37414 -0.32238,-0.27603 -0.58615,-0.62753 -0.58615,-0.78111 0,-0.15358 0.721,-1.058 1.60222,-2.00982 0.88121,-0.9518197 1.73704,-2.0852197 1.90184,-2.5186797 0.21752,-0.57212 0.81062,-1.01736 2.16418,-1.62466 1.02549,-0.46011 1.9509,-1.06162 2.05645,-1.33668 0.17071,-0.44485 0.62088,-0.48753 4.07331,-0.38616 3.81312,0.11197 3.91491,0.1325 5.78637,1.16738 1.04774,0.57937 2.30062,1.14475 2.7842,1.2564 0.98656,0.22779 1.90497,0.94417 1.90497,1.48593 0,0.1972 -0.5166,0.48967 -1.148,0.64994 -0.9973,0.25314 -1.64174,0.13874 -4.90897,-0.87139 -2.06854,-0.63952 -4.38162,-1.18323 -5.14018,-1.20823 -1.26539,-0.0417 -1.49058,0.0634 -2.72871,1.27337 -0.74222,0.72536 -1.59697,1.7166297 -1.89943,2.2028197 -0.67349,1.08261 -1.07262,4.91712 -0.63016,6.05412 0.35086,0.90162 5.12519,4.85809 6.03159,4.99836 1.01143,0.15652 3.16576,-0.33144 3.73411,-0.84579 0.37875,-0.34277 0.53522,-0.90186 0.53522,-1.91247 v -1.4281 l -1.84863,0.18939 -1.84863,0.1894 -1.22864,-1.46747 c -0.67575,-0.8071 -1.22863,-1.61936 -1.22863,-1.805 0,-0.18564 0.29147,-0.73177 0.64771,-1.21361 0.60341,-0.81615 0.73826,-0.8625 1.97157,-0.67755 0.72812,0.10919 2.30135,0.50876 3.49606,0.88794 2.60007,0.82522 2.6552,0.82832 3.14115,0.17654 0.35642,-0.47804 0.43824,-0.45773 1.2046,0.299 0.7891,0.77919 0.82615,0.94444 0.91984,4.10302 0.0833,2.80682 0.18422,3.38435 0.68607,3.92455 l 0.58844,0.6334 -0.88027,0.78432 c -0.63071,0.56197 -1.02781,1.33788 -1.40072,2.73693 -0.667,2.50236 -1.16753,2.9369 -2.00526,1.74087 z m -78.2940497,5.78005 c -0.37304,-0.56934 -0.43523,-1.09209 -0.27883,-2.34385 0.18981,-1.51923 0.16093,-1.62644 -0.50662,-1.88024 -0.87993002,-0.33455 -1.51735002,-1.79381 -1.25677002,-2.87716 0.10737,-0.4464 1.03071002,-2.78988 2.05186002,-5.20773 1.02115,-2.41785 2.15578,-5.18739 2.5214,-6.15453 0.36563,-0.96714 1.5427,-3.60479 2.61572,-5.8614497 1.50547,-3.16613 2.29469,-4.45536 3.4563297,-5.64603 1.41983,-1.4553 3.01173,-2.22705 3.37646,-1.6369 0.0848,0.13721 0.43396,1.81218 0.77592,3.72215 0.70161,3.91882 2.44168,9.6106597 3.10688,10.1627297 0.29511,0.24492 0.93591,0.30701 1.94051,0.18803 0.82494,-0.0977 1.53572,-0.21471 1.57951,-0.26001 0.0438,-0.0453 0.1942,-2.76738 0.33425,-6.0490497 l 0.25464,-5.96668 0.87156,-0.69038 c 0.47937,-0.3797 1.28532,-1.02473 1.79101,-1.4334 0.5057,-0.40867 1.01997,-0.74303997 1.14284,-0.74303997 0.21332,0 0.066,6.91787997 -0.34484,16.18928967 l -0.19141,4.31984 0.99542,0.41575 c 1.5667,0.65435 5.55239,1.39208 6.45263,1.19435 0.44951,-0.0987 0.88904,-0.40557 0.97673,-0.68187 0.0877,-0.2763 0.53521,-0.72433 0.99447,-0.99562 0.79434,-0.46923 0.84432,-0.62442 1.02613,-3.1857 0.10511,-1.48084 0.20426,-5.07904 0.22033,-7.996 0.0161,-2.9169497 0.12057,-5.6317797 0.23224,-6.0329397 0.11166,-0.40117 0.65901,-1.02018 1.21634,-1.37559 0.55732,-0.35541 1.36675,-0.91977 1.79872,-1.25412 0.43197,-0.33436 0.85841,-0.48979 0.94764,-0.3454 0.14943,0.24177 0.0632,3.61827 -0.22183,8.68673 -0.5471,9.7286697 -0.55726,11.1696297 -0.0821,11.6447597 0.47968,0.47968 3.2568,1.21054 5.91986,1.55795 1.98358,0.25877 2.45045,0.93757 1.59588,2.32029 -0.3336,0.53978 -0.7028,1.75194 -0.82043,2.69368 -0.23957,1.91793 -0.72144,2.16109 -0.9441,0.47642 l -0.14654,-1.10873 -1.67496,-0.18002 c -0.92124,-0.099 -2.07283,-0.34483 -2.55912,-0.54625 -1.30707,-0.54141 -1.67569,-0.25248 -1.83841,1.44099 -0.16973,1.76643 -0.35436,2.02186 -1.11714,1.5455 -0.31286,-0.19538 -0.89122,-0.35524 -1.28524,-0.35524 -0.64019,0 -0.75952,-0.19488 -1.1216,-1.83171 -0.39534,-1.7871 -0.42973,-1.83357 -1.41236,-1.90819 -1.39032,-0.1056 -1.76148,0.22562 -1.92678,1.71941 -0.22013,1.98942 -0.38538,2.60663 -0.69785,2.60663 -0.15812,0 -0.28951,-0.42862 -0.29198,-0.95249 -0.007,-1.37751 -0.24252,-1.5743 -2.15111,-1.79351 -0.94379,-0.1084 -1.95722,-0.32619 -2.25205,-0.48398 -1.29187,-0.69139 -1.67713,-0.39196 -1.89342,1.47154 -0.16704,1.43922 -0.30213,1.75844 -0.74416,1.75844 -0.29704,0 -0.62158,-0.13188 -0.7212,-0.29307 -0.0996,-0.16119 -0.48305,-0.29307 -0.85206,-0.29307 -0.51062,0 -0.78096,-0.28011 -1.13142,-1.1723 -0.26669,-0.67893 -0.65542,-1.17229 -0.92367,-1.17229 -0.56343,0 -0.56388,0.0386 -0.0236,2.05151 0.23795,0.88655 0.43421,2.10232 0.43613,2.70173 0.005,1.50289 -0.60077,1.20399 -1.65728,-0.81804 -0.85268,-1.63193 -1.05325,-1.73654 -2.69871,-1.40745 -0.83375,0.16675 -0.91585,0.28343 -0.91585,1.30154 0,1.59465 -0.50372,1.71314 -1.65031,0.38821 l -0.98676,-1.14023 0.18953,-4.79165 c 0.1557,-3.93613 0.1164,-4.83796 -0.22009,-5.05102 -0.2253,-0.14265 -1.185,-0.26139 -2.13267,-0.26386 l -1.7230397,-0.004 0.20359,2.12478 c 0.11197,1.16863 0.4062797,3.02786 0.6540097,4.13164 0.44238,1.97101 0.27974,2.86421 -0.4404997,2.41908 -0.32196,-0.19899 -1.05083,-3.21843 -1.36906,-5.6715 -0.1379,-1.06306 -0.33196,-1.53863 -0.62783,-1.53863 -0.47503,0 -1.60179,2.3546 -2.44321,5.10565 -0.2997,0.97986 -0.95558,3.13336 -1.45751,4.78556 -0.50193,1.65219 -1.03666,3.00399 -1.18829,3.00399 -0.15163,0 -0.49175,-0.32974 -0.75582,-0.73276 z m 18.6516797,-12.3165 c 0.73746,-0.38136 0.86466,-0.61849 0.86466,-1.6119 0,-1.33813 -0.2856,-1.43516 -1.69501,-0.57585 -1.15211,0.70244 -1.39143,1.21016 -0.9549,2.02583 0.38917,0.72716 0.64697,0.75054 1.78525,0.16192 z m -7.9939,-6.44008 c 0.0836,-1.22233 -0.66785,-3.09729 -1.32391,-3.30344 -0.50675,-0.15922 -0.95429,1.16988 -0.95429,2.83407 0,1.65931 0.13926,1.84334 1.30829,1.72882 0.81227,-0.0796 0.89673,-0.18924 0.96991,-1.25945 z" />
</svg>
