<?xml version="1.0" encoding="UTF-8" standalone="no"?>
<!-- Created with Inkscape (http://www.inkscape.org/) -->

<svg
   width="1200"
   height="630"
   viewBox="0 0 317.49999 166.6875"
   version="1.1"
   id="svg5"
   inkscape:version="1.1.1 (3bf5ae0d25, 2021-09-20)"
   sodipodi:docname="allgore-og-share-image2.svg"
   inkscape:export-filename="C:\Users\garet\Documents\profile\images\og-share-image2.png"
   inkscape:export-xdpi="96"
   inkscape:export-ydpi="96"
   xmlns:inkscape="http://www.inkscape.org/namespaces/inkscape"
   xmlns:sodipodi="http://sodipodi.sourceforge.net/DTD/sodipodi-0.dtd"
   xmlns="http://www.w3.org/2000/svg"
   xmlns:svg="http://www.w3.org/2000/svg">
  <sodipodi:namedview
     id="namedview7"
     pagecolor="#ffffff"
     bordercolor="#666666"
     borderopacity="1.0"
     inkscape:pageshadow="2"
     inkscape:pageopacity="0.0"
     inkscape:pagecheckerboard="0"
     inkscape:document-units="mm"
     showgrid="true"
     units="px"
     width="1200px"
     gridtolerance="1"
     objecttolerance="1"
     inkscape:zoom="0.45254834"
     inkscape:cx="891.61746"
     inkscape:cy="174.56699"
     inkscape:window-width="1920"
     inkscape:window-height="974"
     inkscape:window-x="-11"
     inkscape:window-y="-11"
     inkscape:window-maximized="1"
     inkscape:current-layer="layer1">
    <inkscape:grid
       type="xygrid"
       id="grid3799"
       spacingy="83.343749"
       spacingx="158.75" />
  </sodipodi:namedview>
  <defs
     id="defs2">
    <rect
       x="174.93813"
       y="166.19123"
       width="623.94601"
       height="230.33521"
       id="rect700" />
    <pattern
       id="EMFhbasepattern"
       patternUnits="userSpaceOnUse"
       width="6"
       height="6"
       x="0"
       y="0" />
    <pattern
       id="EMFhbasepattern-8"
       patternUnits="userSpaceOnUse"
       width="6"
       height="6"
       x="0"
       y="0" />
    <filter
       style="color-interpolation-filters:sRGB;"
       inkscape:label="Drop Shadow"
       id="filter451"
       x="-0.041560907"
       y="-0.11149384"
       width="1.1177559"
       height="1.3158992">
      <feFlood
         flood-opacity="0.498039"
         flood-color="rgb(0,0,0)"
         result="flood"
         id="feFlood441" />
      <feComposite
         in="flood"
         in2="SourceGraphic"
         operator="in"
         result="composite1"
         id="feComposite443" />
      <feGaussianBlur
         in="composite1"
         stdDeviation="3"
         result="blur"
         id="feGaussianBlur445" />
      <feOffset
         dx="6"
         dy="6"
         result="offset"
         id="feOffset447" />
      <feComposite
         in="SourceGraphic"
         in2="offset"
         operator="over"
         result="composite2"
         id="feComposite449" />
    </filter>
    <filter
       style="color-interpolation-filters:sRGB;"
       inkscape:label="Drop Shadow"
       id="filter511"
       x="-0.078958039"
       y="-0.094804372"
       width="1.2237144"
       height="1.2686124">
      <feFlood
         flood-opacity="0.498039"
         flood-color="rgb(0,0,0)"
         result="flood"
         id="feFlood501" />
      <feComposite
         in="flood"
         in2="SourceGraphic"
         operator="in"
         result="composite1"
         id="feComposite503" />
      <feGaussianBlur
         in="composite1"
         stdDeviation="3"
         result="blur"
         id="feGaussianBlur505" />
      <feOffset
         dx="6"
         dy="6"
         result="offset"
         id="feOffset507" />
      <feComposite
         in="SourceGraphic"
         in2="offset"
         operator="over"
         result="composite2"
         id="feComposite509" />
    </filter>
  </defs>
  <g
     inkscape:label="Layer 1"
     inkscape:groupmode="layer"
     id="layer1">
    <text
       xml:space="preserve"
       transform="scale(0.26458333)"
       id="text698"
       style="fill:black;fill-opacity:1;line-height:1.25;stroke:none;font-family:sans-serif;font-style:normal;font-weight:normal;font-size:40px;white-space:pre;shape-inside:url(#rect700)" />
    <rect
       style="fill:#000000;stroke-width:0.437217"
       id="rect4226"
       width="317.5"
       height="166.6875"
       x="-4.4408921e-16"
       y="0" />
    <path
       style="fill:#aa0000;stroke-width:0.359633"
       d="m 315.58401,144.26819 c -1.83817,-0.64022 -2.0565,-0.62501 -3.06601,0.21376 -1.28443,1.06723 -2.5459,1.38269 -4.19125,1.04829 -0.85549,-0.17388 -1.4658,-0.028 -2.13115,0.50948 -0.73886,0.59683 -1.05014,0.64347 -1.49995,0.2247 -0.41058,-0.38218 -0.42784,-0.92641 -0.0625,-1.96662 0.27782,-0.79102 0.45888,-1.9018 0.40235,-2.46843 -0.0855,-0.85731 0.0738,-1.12536 0.94935,-1.59687 1.53742,-0.82798 1.76911,-1.79598 1.09489,-4.5742 -0.33124,-1.36491 -0.53617,-2.66981 -0.4554,-2.89979 0.26187,-0.7456 1.10086,0.10458 1.51918,1.53943 0.49683,1.70407 0.25867,1.47772 1.86406,1.77159 1.62211,0.29695 2.73818,1.53726 4.32233,4.80354 0.85054,1.75371 1.30211,2.36025 2.17703,2.9242 1.6503,1.06376 1.2969,1.24407 -0.92293,0.47092 z m -20.86079,0.63673 c -0.12423,-0.15387 -0.10004,-0.38145 0.0538,-0.50574 0.15386,-0.12437 0.38146,-0.10004 0.50574,0.0538 0.12438,0.15388 0.10005,0.38146 -0.0538,0.50575 -0.15387,0.12423 -0.38145,0.10004 -0.50575,-0.0538 z m -18.60862,9.0572 c -2.20072,-0.23399 -3.51888,-2.27629 -1.88165,-2.91533 0.51956,-0.2028 0.82097,-0.61267 0.92154,-1.25339 0.1139,-0.72536 0.31931,-0.97235 0.86262,-1.03731 1.86753,-0.22331 3.46959,2.26374 2.59043,4.02138 -0.62854,1.25658 -0.84572,1.3598 -2.49294,1.18465 z m 14.72273,-12.67175 c -0.62604,-0.126 -0.70406,-0.27151 -0.51886,-0.96779 0.33914,-1.27511 1.69325,-2.20833 2.23362,-1.53936 0.80955,1.00218 -0.40067,2.77162 -1.71476,2.50715 z m -7.5683,4.0524 c -0.23397,-0.0822 -0.41195,-0.2762 -0.39545,-0.43114 0.0442,-0.41605 1.12354,-0.69421 1.39409,-0.35929 0.30671,0.37971 -0.4539,0.98173 -0.99837,0.79073 z m 7.97909,-9.44581 c -1.58674,0.10874 -2.136,-0.99265 -1.26173,-2.53015 0.84427,-1.48473 1.4957,-1.63142 2.38051,-0.53605 1.27934,1.58378 0.78609,2.93561 -1.11878,3.0662 z m -27.79756,19.96097 c -2.4146,-1.19996 -2.66115,-1.65362 -1.82183,-3.35217 0.59806,-1.2103 0.80845,-1.41841 1.27432,-1.26051 1.27615,0.4325 2.69875,3.28947 2.393,4.80555 -0.10969,0.54385 -0.43054,0.51029 -1.84549,-0.19287 z m -29.39016,20.61373 c -2.99243,-0.58238 -5.79375,-1.73438 -6.93297,-2.85108 -0.42391,-0.41555 -1.02756,-0.81066 -1.34144,-0.87805 -0.3139,-0.0674 -1.37266,-0.65809 -2.35281,-1.31265 -1.66823,-1.11408 -1.78561,-1.25553 -1.83739,-2.21425 -0.0305,-0.56331 -0.0807,-1.46157 -0.11173,-1.99612 -0.033,-0.56928 -0.32013,-1.14618 -0.6929,-1.39253 -0.55071,-0.36398 -0.78078,-0.26721 -1.70853,0.71851 -1.25529,1.33372 -2.04077,1.28174 -1.9615,-0.12981 0.067,-1.19384 0.74025,-1.72447 3.67399,-2.89594 2.95745,-1.18087 5.01198,-1.06722 5.92829,0.32796 0.46536,0.70848 0.49396,1.09318 0.1086,1.45896 -0.7997,0.75904 -1.4717,1.8982 -1.26837,2.14992 0.24112,0.29849 4.4813,0.56861 4.80618,0.30618 0.13937,-0.11254 0.11581,-0.50965 -0.0523,-0.88239 -0.21816,-0.48378 -0.0704,-0.86778 0.51646,-1.34182 1.15585,-0.93367 3.1605,-0.47606 5.28678,1.20679 1.16901,0.9252 1.46836,1.65812 0.87344,2.13868 -0.23929,0.19329 -0.72052,1.10694 -1.0694,2.03034 -0.62102,1.64372 -0.48326,2.41633 0.85702,4.80636 0.61393,1.09477 -0.0348,1.2738 -2.72149,0.75093 z m 15.37823,-10.93644 c -0.18645,-0.2308 -0.21309,-0.52133 -0.0593,-0.64563 0.15387,-0.12423 0.43231,-0.0371 0.61875,0.19365 0.18643,0.2308 0.21308,0.52135 0.0593,0.64564 -0.15388,0.12424 -0.43231,0.0371 -0.61874,-0.19366 z m 47.48427,-39.65535 c -0.437,-0.54099 -0.43889,-2.09879 -0.003,-2.05238 0.47753,0.0508 0.9657,1.87943 0.58404,2.18773 -0.15717,0.12695 -0.41886,0.0661 -0.58155,-0.13534 z m -73.07613,56.2827 c -1.71896,-0.5643 -2.37343,-1.33259 -2.74217,-3.21906 -0.22947,-1.17398 -0.16508,-1.94503 0.18611,-2.22872 0.87179,-0.70421 1.89163,0.62237 1.85571,2.41388 -0.0256,1.27398 0.0932,1.56682 0.72395,1.78503 0.91641,0.31706 1.53895,1.02687 1.16534,1.32866 -0.15032,0.12138 -0.68533,0.0855 -1.18891,-0.0798 z m 28.0934,-22.11534 c -0.5502,0.0694 -0.61752,-0.0314 -0.53563,-0.80217 0.0734,-0.69142 0.22607,-0.86749 0.70775,-0.81627 0.87274,0.0928 0.72255,1.50544 -0.17208,1.6184 z m 21.61946,-18.21486 c -0.7368,-0.42671 -0.61572,-1.74663 0.18398,-2.0055 0.37201,-0.12043 0.76506,0.0745 1.02377,0.50761 0.52302,0.8757 -0.36987,1.9831 -1.20775,1.49789 z m -33.391,25.24823 c -1.11558,-0.55803 -1.05663,-0.86773 0.25463,-1.33753 1.21685,-0.43599 1.93282,0.34597 1.1189,1.22207 -0.34193,0.36813 -0.79274,0.40601 -1.37355,0.11554 z m 29.59285,-24.46135 c -0.19377,-0.23989 -0.16357,-0.46005 0.0671,-0.48925 0.23065,-0.0292 0.51512,0.0654 0.63207,0.21017 0.11704,0.14479 0.0867,0.36496 -0.0671,0.48925 -0.15387,0.12423 -0.4383,0.0298 -0.63208,-0.21017 z m 19.08231,-15.68927 c -0.85262,0.14571 -1.45437,-0.54197 -1.06403,-1.216 0.33465,-0.57785 1.5431,-0.65785 1.9692,-0.13036 0.39793,0.49264 -0.0814,1.20559 -0.90518,1.34637 z m -8.57509,6.08283 c -0.21488,-0.0754 -0.46001,-0.50155 -0.54474,-0.94689 -0.19439,-1.02137 0.78958,-1.89046 1.35201,-1.19418 0.73481,0.90966 0.14447,2.47532 -0.8073,2.14105 z m -37.19845,28.64484 c -0.38722,-0.47937 -2.89256,0.0353 -3.82351,0.78553 -1.68518,1.35776 -3.10646,-0.40285 -2.89077,-3.58085 0.0859,-1.26632 0.0542,-3.13887 -0.0705,-4.16122 l -0.22688,-1.85882 -1.57776,-0.741 c -2.0474,-0.96156 -2.17405,-1.15919 -1.23097,-1.921 0.54969,-0.44402 0.76937,-1.0393 0.72922,-1.97598 -0.0315,-0.7373 0.12763,-1.49002 0.35384,-1.67273 0.51394,-0.41516 0.72458,-0.14461 0.7604,0.97662 0.0154,0.48117 0.10915,0.97534 0.20832,1.09817 0.0992,0.12288 1.38262,0.4117 2.85202,0.64194 2.16514,0.33927 2.72433,0.56772 2.94973,1.20506 0.15297,0.43252 0.91854,1.58564 1.70126,2.56246 1.0912,1.36169 1.3765,1.95195 1.22324,2.53016 -0.25783,0.97283 0.0806,1.36232 1.66827,1.9199 1.15778,0.40663 1.27841,0.52848 1.15082,1.16244 -0.11839,0.58817 -0.36349,0.71766 -1.44628,0.76405 -1.61433,0.0692 -1.90748,0.29357 -1.71373,1.31165 0.16022,0.84195 -0.22525,1.43811 -0.61663,0.9536 z m 18.08069,-14.82367 c -1.50019,-0.30191 -1.05677,-1.79457 0.62836,-2.11528 1.04409,-0.19871 1.49645,0.45301 0.89125,1.28396 -0.69184,0.9499 -0.75595,0.98497 -1.51957,0.83128 z m 6.1687,-8.9402 c -0.96089,-0.40619 -1.01139,-1.18068 -0.1082,-1.6615 0.39162,-0.20853 0.79418,-0.0791 1.15885,0.37227 0.72649,0.89939 0.0349,1.74809 -1.05061,1.28923 z m 19.87534,-17.18888 c -0.20717,-0.25645 -0.20487,-0.53049 0.005,-0.60897 0.20991,-0.0785 0.47834,-0.0231 0.59643,0.1231 0.11812,0.14617 0.1158,0.4202 -0.005,0.60895 -0.12097,0.1887 -0.38926,0.13336 -0.59641,-0.12308 z m -68.29907,53.92757 c -1.76786,-0.25149 -1.77093,-0.54153 -0.0258,-2.4421 1.34931,-1.46957 1.82581,-1.27392 1.85215,0.76053 0.019,1.46768 -0.42912,1.8803 -1.82627,1.68157 z m 70.84683,-57.40136 c -0.91826,-0.0976 -1.48481,-0.66218 -1.27215,-1.26765 0.20238,-0.57623 1.42014,-0.50612 1.91818,0.11043 0.585,0.72422 0.28783,1.25652 -0.64603,1.15722 z m -15.45743,11.81823 c -0.49005,-0.17212 0.01,-1.12936 0.62976,-1.20794 0.24548,-0.0311 0.4686,0.11922 0.49577,0.33396 0.0655,0.51798 -0.62108,1.05115 -1.12557,0.87392 z m -5.63125,2.12494 c -1.47309,-0.48938 -2.04895,-1.17985 -1.5009,-1.79967 0.2657,-0.3006 0.65037,-0.9102 0.85471,-1.35475 0.27974,-0.60861 0.54863,-0.80592 1.08838,-0.7988 1.14204,0.0151 1.73916,1.10914 1.37302,2.51553 -0.41891,1.60902 -0.67909,1.81509 -1.81523,1.43765 z m -12.64744,9.86961 c -0.44049,-0.54532 -0.29218,-0.96875 0.31661,-0.90402 0.40518,0.0431 0.69971,1.00767 0.38519,1.26174 -0.1374,0.11092 -0.45322,-0.05 -0.7018,-0.35772 z m -25.09145,18.96331 c -0.57547,-0.2529 -1.37561,-0.4642 -1.77809,-0.46954 -1.35811,-0.0179 -1.24903,-0.54237 0.31786,-1.52818 1.83558,-1.15486 3.10207,-1.35434 3.72249,-0.5863 1.15368,1.42822 -0.52619,3.34702 -2.26226,2.58402 z m 50.24309,-40.81332 c -0.98386,0.0473 -1.61981,-1.01829 -1.02688,-1.7207 0.62261,-0.73759 1.40369,-0.54563 1.86892,0.45933 0.45344,0.97951 0.30205,1.2063 -0.84204,1.26137 z m 3.22478,-5.43429 c -1.2287,-0.24728 -1.20845,-1.20668 0.0434,-2.05752 0.97266,-0.66111 1.19664,-0.66943 1.68658,-0.0629 0.46584,0.57669 0.42547,0.8365 -0.23012,1.48083 -0.48168,0.4733 -1.07295,0.72552 -1.49989,0.63958 z m 3.60527,-4.80669 c -1.31846,0.089 -1.76447,-0.5584 -1.13187,-1.64301 0.76431,-1.31042 1.42924,-1.38303 2.18424,-0.23853 0.74802,1.1339 0.3841,1.78455 -1.05237,1.88154 z m -100.45594,80.42223 c -0.62816,-0.22062 -0.63134,-2.42159 -0.004,-3.10296 0.68077,-0.73998 1.17274,-0.14914 1.19322,1.43305 0.0165,1.26841 -0.45326,1.92821 -1.18874,1.66991 z m 38.92945,-34.31395 c -0.74428,0.0358 -0.78318,-0.01 -0.63609,-0.74008 0.13665,-0.679 0.25868,-0.75105 0.95725,-0.56526 1.34311,0.35724 1.12703,1.23558 -0.32112,1.3053 z m -14.37301,10.59432 c -0.18643,-0.2308 -0.21309,-0.52134 -0.0593,-0.64563 0.15387,-0.12423 0.43229,-0.0371 0.61874,0.19367 0.18644,0.2308 0.21309,0.52133 0.0593,0.64562 -0.15387,0.12424 -0.43231,0.0371 -0.61875,-0.19366 z m 40.75695,-33.12334 c -1.25927,-0.53232 -1.63596,-1.35026 -2.72716,-5.9215 -0.92816,-3.88836 -1.02553,-5.57192 -0.26799,-4.63411 0.48884,0.60516 1.06079,-0.46716 0.75818,-1.42148 -0.25852,-0.81523 -0.73431,-1.27202 -2.44615,-2.34845 -2.48343,-1.56161 -2.85413,-2.26953 -1.68356,-3.21509 0.51813,-0.41854 0.80928,-1.00657 0.77146,-1.55814 -0.0738,-1.07598 0.71661,-1.40575 1.92298,-0.80234 1.47195,0.73627 1.86559,1.56315 1.68015,3.52941 l -0.17729,1.8798 1.40909,0.7117 c 1.6036,0.80994 2.24946,1.76916 3.27172,4.85919 1.07146,3.23876 1.06691,4.72165 -0.0193,6.27732 -0.52216,0.74788 -0.97377,1.58915 -1.00357,1.8695 -0.0845,0.79438 -0.69263,1.11066 -1.48861,0.77419 z m -4.21698,3.16697 c -0.59885,-0.34679 -0.73552,-1.1555 -0.2066,-1.22243 0.53148,-0.0673 1.33862,0.97933 0.97916,1.26969 -0.1587,0.12818 -0.50636,0.10698 -0.77259,-0.0473 z m 13.09711,-11.14126 c -0.43083,-0.81182 0.14505,-1.43628 0.69581,-0.75448 0.27757,0.34364 0.29015,0.72875 0.0306,0.93839 -0.26053,0.21044 -0.55699,0.13539 -0.72645,-0.18391 z m -43.98328,34.67548 c -2.36119,0.53809 -2.3745,0.54733 -1.99581,1.38698 0.41301,0.91575 -0.0817,1.22968 -1.31343,0.83336 -1.34536,-0.43286 -1.52769,-1.15356 -0.58378,-2.30764 0.4244,-0.51888 0.9064,-1.34046 1.07111,-1.82573 0.27694,-0.81581 0.45557,-0.86409 2.37163,-0.64103 2.19786,0.25592 2.69625,0.55823 2.50303,1.51829 -0.0882,0.43857 -0.62867,0.71124 -2.05275,1.03577 z m 9.64222,-8.98119 c -1.06061,0.10357 -2.03248,0.12192 -2.15972,0.0409 -0.12722,-0.081 -0.0249,-0.67368 0.22758,-1.31711 l 0.45896,-1.16983 -1.89044,-1.95019 c -1.8017,-1.85869 -1.86311,-1.97224 -1.3088,-2.42 0.31987,-0.25839 0.7611,-0.40677 0.98048,-0.32971 0.21935,0.0771 1.15886,-0.47381 2.08772,-1.22411 1.88099,-1.51942 2.65297,-3.02844 2.28351,-4.46367 -0.32767,-1.27294 0.91155,-2.20948 2.0472,-1.5471 1.11965,0.65303 2.32634,2.16984 2.61342,3.28506 0.12628,0.49074 -0.0489,1.71313 -0.38954,2.71641 -0.34056,1.00327 -0.51494,2.22922 -0.38751,2.72429 0.29123,1.13139 0.13402,1.25005 -2.10181,1.58649 -2.04291,0.30745 -2.13553,0.62208 -0.64367,2.18663 1.11614,1.17063 0.66308,1.63982 -1.81735,1.88193 z m 11.36701,-10.65595 c -1.26396,-0.17445 -2.08152,-0.91407 -1.64232,-1.48576 0.15494,-0.20169 0.8715,-1.31057 1.59238,-2.46421 0.72086,-1.15363 1.91342,-2.95466 2.65013,-4.00225 0.80545,-1.14534 1.34,-2.33362 1.34077,-2.98045 l 0.001,-1.0757 2.2082,0.0155 c 2.16275,0.0152 2.2277,0.045 3.15564,1.45006 0.52113,0.78898 0.94317,1.75698 0.93793,2.15105 -0.0155,1.16613 -1.62113,2.165 -3.65192,2.27183 -1.86876,0.0983 -2.97064,0.63636 -2.87359,1.40321 0.0756,0.59738 -1.02808,2.96388 -1.86728,4.0038 -0.55899,0.69267 -0.93863,0.83892 -1.85122,0.71295 z m -3.68807,2.59507 c -0.58648,0.0901 -0.74062,-0.0251 -0.73368,-0.54908 0.017,-1.27647 1.28044,-1.59709 1.661,-0.4215 0.21888,0.67619 0.0866,0.81466 -0.92732,0.97058 z m 31.28243,-26.235 c -0.78883,-0.0839 -1.40343,-0.85911 -1.22194,-1.54129 0.0787,-0.29597 0.49677,-1.09796 0.92897,-1.78217 0.65682,-1.03985 0.87578,-1.21358 1.33398,-1.05834 1.53352,0.5194 1.80363,2.63883 0.47326,3.71348 -0.49905,0.40312 -1.18046,0.7039 -1.51425,0.66839 z m -92.26686,73.9626 c -0.8649,-0.50086 -0.95912,-1.41621 -0.19286,-1.87386 0.51541,-0.30783 0.85387,-0.23325 1.26803,0.27948 0.41417,0.51274 0.41594,0.85931 0.007,1.29845 -0.33493,0.35932 -0.76778,0.47779 -1.08175,0.29593 z m 32.18892,-30.72148 c -0.56822,-0.0605 -0.43639,-0.73879 0.25161,-1.29453 0.3665,-0.29606 0.82707,-0.48187 1.02347,-0.41287 0.60971,0.21412 -0.56207,1.78322 -1.27508,1.7074 z m -25.84611,16.28489 c -0.36375,-0.21065 -0.49366,-0.62409 -0.35722,-1.13703 0.28706,-1.07922 0.83568,-1.22781 1.49941,-0.40612 0.67471,0.83527 -0.23718,2.06726 -1.14219,1.54315 z m 25.38563,-20.11347 c -0.96014,0.6405 -1.42851,0.72767 -2.10124,0.39117 -0.98213,-0.49126 -1.64406,-0.13184 -1.65775,0.90026 -0.005,0.38553 -0.23565,0.88383 -0.51232,1.10733 -1.09992,0.88849 -3.05584,-1.98214 -4.95877,-7.27777 -0.95081,-2.64598 -1.80872,-3.71949 -3.43892,-4.30311 -1.18094,-0.42278 -1.67865,-0.32613 -3.4076,0.66184 -0.58847,0.33626 -0.60899,0.29087 -0.29421,-0.65038 0.18613,-0.55652 0.80672,-1.52039 1.37912,-2.14193 1.0134,-1.10043 1.07768,-1.11356 2.45095,-0.50098 0.77564,0.346 1.76516,0.63379 2.19893,0.63954 0.69027,0.01 0.78884,-0.11757 0.78991,-1.01572 6.7e-4,-0.56441 0.1917,-1.18007 0.4245,-1.36812 0.69593,-0.56216 3.13613,-0.33516 4.79299,0.44586 2.19965,1.03686 3.53597,2.84582 4.56004,6.17287 0.4696,1.52569 1.09205,3.06889 1.38323,3.42936 0.8608,1.06564 0.94594,1.78668 0.26569,2.25019 -0.35143,0.2395 -1.195,0.80629 -1.87455,1.25959 z m 34.44996,-30.74478 c -0.7914,-0.15369 -1.53021,-0.39245 -1.64177,-0.53057 -0.22326,-0.27639 0.57653,-2.29132 1.06666,-2.68724 0.41211,-0.3329 2.55374,2.66144 2.24525,3.1392 -0.12723,0.19692 -0.87873,0.23231 -1.67014,0.0786 z m -8.48522,3.24578 c -0.51855,-0.18212 -0.87809,-2.68662 -0.53982,-3.76036 l 0.30302,-0.96184 0.69672,1.22083 c 0.9954,1.74419 0.71058,3.91246 -0.45992,3.50137 z m -16.32779,11.03486 c -0.18644,-0.2308 -0.21308,-0.52132 -0.0593,-0.64561 0.15387,-0.12424 0.43231,-0.0371 0.61874,0.19365 0.18644,0.2308 0.21309,0.52134 0.0593,0.64563 -0.15387,0.12437 -0.43231,0.0371 -0.61875,-0.19367 z m 37.10329,-30.18612 c -0.39128,-0.48439 0.31215,-1.66364 0.95181,-1.59564 0.96021,0.1021 0.99297,0.47073 0.10548,1.1876 -0.4616,0.37287 -0.9374,0.5565 -1.05732,0.40804 z m -36.28054,24.76983 c -0.41526,-0.68324 -0.78442,-1.88634 -0.82037,-2.67358 l -0.0654,-1.43136 -2.12734,-0.10187 c -1.17002,-0.056 -2.28553,0.0862 -2.47885,0.31611 -0.19333,0.2299 -0.0527,1.21684 0.31237,2.19323 0.54605,1.46014 0.54702,1.8951 0.005,2.45036 -1.13516,1.16409 -2.73998,1.22372 -4.47777,0.1664 -2.31232,-1.40688 -2.75893,-1.50152 -3.05746,-0.64789 -0.16631,0.47558 0.064,1.1541 0.6971,2.05314 0.65433,0.92923 0.91853,1.7393 0.85791,2.63016 -0.13825,2.03171 -0.57609,1.98768 -7.47665,-0.75174 -2.13657,-0.84817 -3.07321,-0.54639 -4.78547,1.54197 -0.64741,0.78961 -1.25988,1.42977 -1.36109,1.42259 -0.10126,-0.007 -0.39248,-0.68964 -0.64723,-1.51664 -0.60268,-1.95625 -0.7045,-2.05795 -1.93705,-1.93499 -0.95757,0.0956 -1.13463,0.24433 -2.1995,1.8487 -0.63696,0.95966 -1.31496,1.72815 -1.50667,1.70777 -0.19172,-0.0204 -0.29244,-0.72143 -0.22383,-1.55785 l 0.12478,-1.52081 -1.26778,0.004 c -0.69726,0.003 -1.4051,-0.1656 -1.57297,-0.37341 -0.16788,-0.20783 -0.24453,-1.30681 -0.17034,-2.44218 0.0996,-1.52392 -0.11146,-2.56229 -0.80595,-3.9666 -0.84949,-1.71759 -1.01525,-1.8987 -1.70732,-1.86538 -0.5667,0.0273 -1.01654,0.35616 -1.72575,1.26169 -0.66602,0.8504 -1.60349,1.57406 -3.06678,2.36736 -2.08076,1.12804 -3.80993,2.61073 -4.41866,3.78882 -0.27955,0.541 -0.35441,0.48808 -0.70869,-0.5007 -0.33224,-0.92731 -0.61387,-1.18209 -1.74631,-1.57982 -1.74434,-0.61263 -2.04568,-1.02394 -1.84034,-2.51181 0.26837,-1.94458 -0.16149,-2.02986 -2.4972,-0.49542 -2.43438,1.59927 -5.66581,3.13221 -6.57721,3.12013 -0.34163,-0.004 -0.93099,-0.44948 -1.3097,-0.98878 -0.37869,-0.53932 -0.77492,-0.97014 -0.87954,-0.95819 -0.10507,0.0122 -0.85845,0.16381 -1.67428,0.33673 -0.81583,0.17292 -2.66181,0.15577 -4.10215,-0.0381 -1.44035,-0.19387 -2.71487,-0.27491 -2.83228,-0.18007 -0.11744,0.0948 -0.23289,0.70823 -0.25664,1.36308 -0.0238,0.65484 -0.29139,1.39115 -0.59479,1.63623 -0.84514,0.68269 -3.58336,0.4109 -5.86284,-0.58191 l -2.05166,-0.89359 -2.9408,1.18418 -2.94079,1.18419 -1.19351,2.56866 c -1.50288,3.23447 -2.31916,4.17796 -4.32077,4.99402 -1.12718,0.45956 -1.79856,0.9418 -2.28069,1.63815 -0.81469,1.17674 -2.52276,2.2034 -5.10686,3.06964 -2.1234,0.71179 -5.36988,0.38124 -8.22347,-0.83731 -2.18974,-0.93507 -2.232,-1.61542 -0.13823,-2.22587 2.62818,-0.76624 5.13302,-4.09119 4.6107,-6.1203 -0.39827,-1.54721 0.72295,-1.82934 3.40313,-0.85634 2.10307,0.76349 2.50733,0.78058 3.59935,0.15211 0.67662,-0.38938 1.97607,-0.86689 2.88767,-1.06112 2.45765,-0.52362 5.09209,-1.81842 8.37436,-4.11589 3.57266,-2.50072 4.11073,-3.49126 2.78678,-5.13025 -0.6854,-0.84849 -0.70852,-1.03113 -0.15049,-1.18787 0.36268,-0.10188 0.89965,-0.40291 1.19328,-0.66897 0.29359,-0.26608 0.96227,-0.84107 1.48591,-1.27779 0.99842,-0.83266 1.44227,-2.25123 0.91041,-2.90965 -0.17216,-0.21313 -1.24549,-0.44925 -2.38518,-0.5247 -2.9115,-0.19276 -2.7798,-0.84778 0.55278,-2.74915 1.37435,-0.78411 2.77073,-1.78678 3.10309,-2.22814 0.33235,-0.44137 0.80792,-2.36543 1.05684,-4.2757 0.3949,-3.0308 0.34435,-3.67367 -0.39696,-5.04714 -0.72945,-1.35148 -1.03902,-1.64049 -2.19024,-2.04481 -0.93751,-0.32928 -1.549,-0.30264 -2.0333,0.0886 -3.38336,2.733 -7.07544,2.30913 -9.86296,-1.13235 -1.06875,-1.31873 -0.79834,-2.27707 0.72353,-2.56671 1.02609,-0.19529 1.91286,-1.29183 2.25516,-2.788642 0.27526,-1.203704 1.45405,-2.340435 2.66627,-2.571143 0.65348,-0.124371 1.03278,0.167577 2.41779,1.860999 1.82272,2.228556 3.15113,3.153706 5.55231,3.866736 2.36385,0.70194 3.48096,1.7866 3.92595,3.81187 0.20228,0.92068 0.61382,1.97253 0.91454,2.33744 0.67474,0.818 4.03194,2.21482 5.02165,2.08862 1.14636,-0.14618 1.18309,-2.04644 0.0693,-3.58923 -2.4688,-3.41992 -4.14405,-6.0631 -4.11019,-6.48497 0.0207,-0.25829 -0.43469,-1.054409 -1.01203,-1.76913 -0.77315,-0.957132 -1.00884,-1.559745 -0.89457,-2.287319 0.0916,-0.583354 -0.0737,-1.156626 -0.40378,-1.400093 -0.43004,-0.317154 -0.41455,-0.455029 0.0667,-0.597533 1.46096,-0.432614 1.76457,-0.749473 2.69798,-2.815754 0.53999,-1.195389 1.37496,-2.716896 1.85548,-3.381136 1.38959,-1.920913 1.3937,-2.249724 0.0512,-4.106182 -2.29973,-3.180207 -2.7096,-3.568972 -4.25049,-4.031934 -1.31498,-0.395048 -4.83077,-2.947389 -4.77555,-3.466835 0.0109,-0.09978 0.47381,-0.330132 1.02939,-0.511806 0.82156,-0.268756 1.00339,-0.469536 0.97421,-1.075794 -0.0525,-1.088698 0.47527,-1.010309 3.91805,0.581993 2.85899,1.322306 3.16845,1.382129 3.93729,0.761074 1.80379,-1.457059 2.30029,-4.525707 0.99394,-6.14293 -0.59509,-0.7367 -1.10379,-0.914451 -2.57646,-0.900289 -2.76456,0.02657 -3.12116,-0.948667 -0.76471,-2.091309 1.37122,-0.664891 4.77222,-3.335858 5.20986,-4.091521 0.36024,-0.622032 -0.85726,-2.293164 -2.03266,-2.790015 -0.78775,-0.333006 -3.27128,-2.408315 -4.56446,-3.814222 -0.6028,-0.655403 -0.61266,-1.002676 -0.0639,-2.261023 0.97681,-2.240046 0.3074,-2.984349 -3.31042,-3.680726 l -2.92669,-0.563406 -1.26147,-2.379591 c -1.04979,-1.980283 -1.57607,-2.647179 -3.13615,-3.974148 -2.14648,-1.825788 -4.6837,-5.222754 -4.58616,-6.140191 0.0522,-0.490736 0.24327,-0.642513 0.91132,-0.723912 0.46493,-0.05664 1.83532,-0.808574 3.04532,-1.670956 2.10205,-1.498173 2.18733,-1.606647 1.91591,-2.436351 -0.18609,-0.568922 -0.9568,-1.418081 -2.23488,-2.4624 -2.61973,-2.140574 -2.69426,-2.258724 -2.54591,-4.036276 0.0718,-0.860021 -0.0832,-1.668713 -0.34912,-1.822755 -0.26299,-0.152289 -1.64762,-0.197528 -3.07702,-0.10053 -1.42937,0.09701 -2.75289,-0.01431 -2.94114,-0.247366 -0.18827,-0.233064 -0.25369,-1.344236 -0.14542,-2.469288 0.10834,-1.12505 0.0937,-2.17335 -0.0325,-2.329555 -0.50431,-0.624301 2.36886,-0.04036 4.2382,0.861367 1.74976,0.84405 1.97726,0.867938 1.88537,0.197948 -0.34661,-2.527033 0.23005,-2.923196 1.66649,-1.144925 0.78253,0.968729 1.07973,1.085205 2.3072,0.904182 0.7749,-0.114272 1.62474,-0.08281 1.8885,0.06993 0.62723,0.36325 0.1294,1.499341 -1.088,2.482705 -0.77245,0.62396 -0.9866,1.169675 -1.07314,2.734798 -0.12397,2.242044 0.29099,2.641677 1.28,1.232711 0.3748,-0.53394 0.76561,-0.961857 0.86846,-0.95093 0.1029,0.01087 0.89311,1.293388 1.75623,2.849804 2.64702,4.773631 3.30269,5.404373 6.10314,5.870983 2.20028,0.366614 2.50449,0.52501 3.59061,1.86958 1.06694,1.320842 1.14431,1.582314 0.76679,2.592058 -0.23091,0.61767 -0.27663,1.608644 -0.10167,2.202177 0.30832,1.045465 -0.13198,2.487377 -0.96494,3.160244 -0.64812,0.523532 0.0333,1.007418 1.40638,0.998723 1.17817,-0.0075 1.38129,0.136114 2.96298,2.094191 1.49757,1.853936 1.68655,2.255962 1.60067,3.403809 l -0.0975,1.301614 1.5963,0.617497 c 0.94187,0.364347 2.05936,1.137523 2.72583,1.885988 1.33513,1.499473 3.47609,2.571123 6.38422,3.195731 3.23735,0.695336 4.94605,0.0054 5.45054,-2.200693 0.23445,-1.025245 0.13443,-1.296261 -0.7833,-2.122127 l -1.05206,-0.946762 1.14404,-0.377277 c 0.95078,-0.313544 1.21032,-0.559857 1.53643,-1.458171 0.49185,-1.354843 -0.22776,-2.534647 -2.51986,-4.131244 -1.4441,-1.005913 -1.83934,-1.46606 -2.70885,-3.153601 -0.92147,-1.788359 -0.94885,-2.012812 -0.28845,-2.365563 0.85115,-0.454621 0.99734,-1.546588 0.38386,-2.867164 -0.65967,-1.419996 -0.21795,-1.359176 1.6524,0.227508 2.04492,1.734773 4.8237,2.788906 6.88153,2.610512 2.07506,-0.179877 2.4258,0.443563 1.22283,2.173541 -0.54363,0.781779 -0.99293,1.762472 -0.99846,2.179307 -0.0147,1.103163 1.35161,1.006662 5.30852,-0.374991 1.78833,-0.624445 3.42369,-1.07487 3.63414,-1.000966 0.21048,0.0739 0.75807,1.059583 1.21688,2.190384 0.98492,2.427314 1.24836,2.588526 5.08924,3.114644 1.65604,0.22683 2.79813,0.166847 3.21361,-0.168779 1.0924,-0.882416 3.22545,-3.974562 3.7621,-5.453685 0.75052,-2.068556 2.52014,-9.194464 2.95192,-11.886816 0.29964,-1.868278 0.48068,-2.276997 0.90085,-2.033656 0.78211,0.452936 1.08545,3.452777 0.67966,6.721315 -0.44775,3.606373 -2.67715,11.301731 -3.59319,12.402767 -0.96034,1.154301 -0.89492,3.020596 0.22816,6.509878 l 0.96713,3.004702 2.21019,0.974231 c 1.21561,0.535823 2.38968,1.196424 2.60903,1.467992 0.21937,0.271568 1.27614,0.667328 2.34838,0.879472 1.07224,0.212141 2.26298,0.518212 2.64607,0.680157 0.91735,0.387781 1.14143,0.16093 1.45968,-1.477785 0.32183,-1.657085 0.58566,-1.902356 1.89636,-1.762989 1.29202,0.137378 2.29509,1.379824 2.71243,3.359608 0.36137,1.714585 0.17432,2.362933 -1.11033,3.8486 -0.97876,1.131908 -0.76422,1.841754 1.34585,4.453115 1.81141,2.24189 6.92286,4.405279 8.12112,3.437349 0.22825,-0.184379 0.55454,-1.280103 0.72508,-2.434939 0.17055,-1.154843 0.39042,-2.164608 0.48861,-2.243921 0.0983,-0.07935 0.59095,0.36633 1.095,0.990334 0.8865,1.097444 0.97761,1.116581 2.78486,0.585938 1.02761,-0.30174 1.94862,-0.44929 2.04668,-0.327896 0.098,0.121394 0.20338,1.100776 0.23406,2.176412 l 0.0557,1.95571 -2.08914,1.822575 c -2.33296,2.035284 -2.33606,2.158421 -0.0798,3.165594 1.79177,0.799842 3.38596,2.68621 3.26121,3.859032 -0.0707,0.665124 -0.423,1.062913 -1.59347,1.799324 -1.03976,0.654162 -1.59062,1.218727 -1.78814,1.832609 -0.157,0.487951 -0.8516,1.308362 -1.54355,1.82313 -1.46314,1.08848 -1.63743,2.223641 -0.67538,4.39874 0.32547,0.735855 0.53784,2.526397 0.47841,4.033645 -0.11186,2.836634 0.22431,3.618384 1.82435,4.242694 1.37779,0.53759 1.47442,0.73882 1.34606,2.80291 l -0.11512,1.85242 -3.17334,2.23797 c -3.01047,2.12309 -3.17633,2.29143 -3.23187,3.28019 -0.0738,1.31518 0.52414,1.55182 3.37288,1.3347 1.86098,-0.14185 2.22661,-0.29455 3.17208,-1.32489 1.77185,-1.93085 3.46235,-1.30293 3.19752,1.18767 -0.1275,1.19979 -0.18837,1.26896 -1.31893,1.50076 -1.17768,0.24145 -1.18787,0.25986 -1.60096,2.89631 -0.22868,1.45932 -0.64519,2.83866 -0.92563,3.06519 -0.34178,0.27609 -1.25945,0.0815 -2.78352,-0.59033 -2.62577,-1.15743 -3.29051,-1.83431 -3.28869,-3.34887 10e-4,-1.04048 0.0424,-1.08614 0.93311,-1.03611 0.98594,0.0554 1.71591,-0.31765 1.39619,-0.71346 -0.10507,-0.13002 -0.62681,-0.26087 -1.15951,-0.29079 -0.53271,-0.0299 -1.09288,-0.2083 -1.24483,-0.39642 -0.15197,-0.18811 -0.55349,-0.34571 -0.89228,-0.3502 -0.71279,-0.01 -0.94347,0.59507 -1.3352,3.49971 -0.1664,1.23364 -0.52017,2.09003 -1.03531,2.50614 -0.70819,0.57207 -0.70698,0.75772 0.0122,1.95455 0.69511,1.15596 0.93424,1.31706 1.89974,1.27957 0.60746,-0.0236 1.12631,0.12944 1.15295,0.34001 0.0958,0.75668 -0.88324,1.10901 -2.30071,0.82801 l -1.4438,-0.28621 -0.61442,1.27761 c -0.67106,1.39535 -0.4522,3.01531 0.49165,3.63909 0.49029,0.32403 0.42431,0.7375 -0.35986,2.25534 -0.52811,1.0222 -1.18575,2.19667 -1.46142,2.60992 -0.48245,0.72325 -0.52945,0.70487 -1.25623,-0.49088 z m 23.04824,-18.25811 c -0.29127,-0.36058 -0.3098,-0.67336 -0.0458,-0.77206 0.2441,-0.0913 0.57945,0.002 0.74518,0.2071 0.16572,0.20516 0.18633,0.55259 0.0458,0.77206 -0.15199,0.23741 -0.45391,0.15349 -0.74518,-0.2071 z m 36.22895,-28.979241 c -0.18643,-0.230801 -0.27594,-0.59914 -0.19888,-0.818532 0.0771,-0.219348 0.29266,-0.210025 0.47908,0.02076 0.18645,0.230802 0.27592,0.599148 0.19887,0.818529 -0.0771,0.219349 -0.29265,0.210017 -0.47907,-0.02076 z m -99.01291,77.422041 c -0.71163,-0.24994 -0.99857,-2.00603 -0.40599,-2.48471 1.06175,-0.85764 1.82291,-3.23409 2.03442,-6.35167 0.11527,-1.69898 0.40364,-3.18524 0.64087,-3.3028 0.53296,-0.26417 1.16179,-1.69011 1.12404,-2.54898 -0.0155,-0.35153 0.31467,-0.84427 0.7336,-1.09495 0.59833,-0.35804 0.93304,-0.28127 1.56063,0.35794 0.65728,0.6694 0.73386,1.08003 0.43196,2.31517 -0.20185,0.82579 -0.83942,2.18805 -1.41683,3.02726 -0.5774,0.83921 -1.32878,2.71345 -1.66969,4.16502 -0.9521,4.05363 -2.07917,6.25271 -3.03301,5.91772 z m 67.39845,-57.2884 c -0.83361,-0.10745 -2.79563,-0.0714 -4.36007,0.0801 -3.25865,0.31563 -5.00282,0.0255 -5.80314,-0.96527 -0.4901,-0.60673 -0.4505,-0.74221 0.32179,-1.09974 0.60322,-0.27925 0.92551,-0.69292 1.02285,-1.31266 0.0782,-0.49772 0.22238,-0.88435 0.32043,-0.85918 0.098,0.0251 1.18725,0.32297 2.42038,0.6618 1.23312,0.33882 2.31679,0.55566 2.40816,0.48185 0.0913,-0.0738 0.47136,-0.63841 0.84443,-1.25467 0.64514,-1.06571 0.74401,-1.10602 2.02259,-0.82475 0.73934,0.16263 1.5853,0.5928 1.87986,0.95591 0.65229,0.80318 1.19195,3.72318 0.75415,4.07683 -0.17369,0.1403 -0.99782,0.16718 -1.83143,0.0597 z m -103.6614,80.53201 c -0.21934,-0.0771 -0.26552,-0.24781 -0.10262,-0.3794 0.16296,-0.13158 0.39797,-0.11336 0.52226,0.0405 0.12424,0.15387 0.17048,0.3246 0.10263,0.37941 -0.0678,0.0549 -0.30287,0.0366 -0.52225,-0.0405 z M 170.50455,161.106 c -0.12424,-0.15387 -0.0298,-0.4383 0.21016,-0.63206 0.23989,-0.19378 0.46005,-0.16359 0.48923,0.0671 0.0292,0.23065 -0.0654,0.51511 -0.21016,0.63208 -0.14479,0.11689 -0.36495,0.0867 -0.48923,-0.0671 z m 0.67139,-2.70075 c -0.17565,-0.32844 -0.0598,-0.86632 0.26052,-1.21015 0.44648,-0.47912 0.64806,-0.48539 0.89278,-0.0277 0.17565,0.32842 0.0598,0.86631 -0.2605,1.21013 -0.44649,0.47914 -0.64806,0.4854 -0.8928,0.0277 z m 93.46759,-75.061501 c -0.36812,0.173827 -1.33831,0.338546 -2.15598,0.366034 -1.32228,0.04445 -1.58115,-0.08622 -2.34166,-1.181942 l -0.855,-1.231934 1.6677,-1.206828 c 1.84322,-1.333922 2.43291,-2.323956 2.01771,-3.387699 -0.37797,-0.968369 0.36294,-1.452467 2.58862,-1.691351 2.3273,-0.249797 5.12026,0.08676 4.54946,0.548214 -0.22105,0.178718 -0.81356,1.489366 -1.31667,2.912564 -0.91105,2.577114 -2.0019,3.856726 -4.15414,4.872957 z m -23.52276,13.794027 c -0.77689,-0.121992 -0.94762,-0.277998 -0.93993,-0.85882 0.0137,-1.036901 0.89344,-1.580309 1.6522,-1.0206 0.62508,0.461089 0.87319,1.51468 0.43924,1.865218 -0.11118,0.08981 -0.62937,0.09619 -1.15151,0.0142 z m 0.85422,-4.369855 c -0.37886,-0.469007 0.0235,-0.985933 0.53626,-0.688981 0.30261,0.175179 0.33681,0.418752 0.0873,0.62035 -0.22596,0.182533 -0.50655,0.213417 -0.6235,0.06863 z m -74.02672,57.912999 c -1.37239,0.56069 -2.2373,0.48455 -2.82992,-0.24908 -0.73707,-0.91245 -0.43111,-1.87268 0.79124,-2.48326 0.85585,-0.42751 1.06354,-0.76349 1.21806,-1.97025 0.14885,-1.16247 0.33137,-1.47238 0.90813,-1.542 0.88863,-0.10724 2.01637,0.93845 2.23158,2.06927 0.16597,0.87203 -0.51801,3.21579 -1.04264,3.57274 -0.16409,0.11159 -0.73849,0.3828 -1.27645,0.60258 z m 65.62266,-54.376176 c -2.00498,-0.316606 -3.05251,-0.903133 -3.77688,-2.114719 -0.39584,-0.662002 -0.29284,-0.8559 1.06157,-1.998618 0.82495,-0.696009 1.44069,-1.423936 1.3683,-1.617599 -0.0725,-0.193665 -0.14864,-0.705437 -0.16942,-1.13727 -0.0818,-1.698874 3.23608,-1.502716 4.67726,0.276524 0.91273,1.127775 1.33294,3.603352 0.79366,4.681497 -0.86655,1.732423 -1.90467,2.233874 -3.95449,1.910185 z m 17.04267,-17.15899 c -2.23535,-0.237687 -3.0463,-1.093255 -1.90791,-2.012832 0.44278,-0.357663 0.80923,-0.965729 0.81433,-1.351257 0.0144,-1.089751 0.3801,-1.146372 1.67581,-0.25948 0.95378,0.652836 1.24935,1.043219 1.45004,1.915141 0.36323,1.578266 -0.0432,1.919902 -2.03223,1.708407 z m -77.45391,62.926716 c -0.40123,-0.4967 0.004,-1.36982 0.67446,-1.45473 0.32982,-0.0417 0.4574,0.12831 0.45116,0.60115 -0.0122,0.87534 -0.6915,1.39091 -1.12558,0.85355 z m 68.61545,-57.145229 c -0.8117,-0.188122 -2.65028,-1.410876 -3.26421,-2.170885 -0.57921,-0.717028 -0.35577,-1.059251 0.84013,-1.286857 0.6333,-0.120524 1.02164,0.157723 2.12303,1.521221 1.32209,1.636682 1.4086,2.193201 0.30105,1.936521 z m 2.79878,-3.106866 c -0.95756,0.14674 -1.66114,-0.782321 -1.27837,-1.687916 0.478,-1.130794 1.37176,-1.674731 2.18615,-1.330475 0.58998,0.249394 0.72043,0.524485 0.63404,1.33708 -0.12071,1.135117 -0.47117,1.517286 -1.54188,1.681354 z m -83.69586,64.077555 c -1.42321,-0.22639 -1.44774,-0.54513 -0.16922,-2.19891 1.1685,-1.51149 1.19802,-1.52654 2.68493,-1.36845 0.82689,0.088 1.48844,0.30091 1.4701,0.47329 -0.0183,0.1724 -0.71375,0.97228 -1.54539,1.77758 -1.27502,1.23459 -1.65764,1.44101 -2.44042,1.31649 z M 234.8738,77.463921 c -0.67357,-0.390079 -0.69602,-1.077978 -0.0523,-1.597983 0.39272,-0.317219 0.6994,-0.245036 1.10799,0.260774 0.41721,0.516498 0.41635,0.819451 -0.003,1.158467 -0.31257,0.252486 -0.78612,0.332915 -1.05235,0.178742 z m -85.89682,68.990639 c -1.64382,0.5959 -3.77979,-0.0783 -4.97599,-1.57047 -1.3115,-1.63656 -1.32744,-2.30346 -0.0618,-2.62921 1.54821,-0.39852 1.77734,-0.75211 1.53816,-2.37377 l -0.22176,-1.50375 1.47242,0.12478 c 3.22267,0.27303 5.68863,3.55573 4.59813,6.12109 -0.42325,0.9957 -0.75307,1.25283 -2.34907,1.83137 z m -30.85848,18.67536 c -1.38391,-0.21733 -1.7206,-0.97935 -1.01198,-2.29033 1.08225,-2.00214 1.65872,-2.25735 2.5649,-1.13554 0.64088,0.79339 0.69684,1.17292 0.30454,2.06555 -0.61348,1.3959 -0.79314,1.52747 -1.85748,1.36031 z m 17.63474,-15.70481 c -1.28855,-0.44579 -2.02971,-1.60287 -1.36872,-2.13681 0.30984,-0.25027 0.69396,-0.82061 0.85362,-1.2674 0.247,-0.69126 0.41571,-0.77991 1.13155,-0.59454 1.08349,0.28055 1.54192,0.86708 1.62503,2.07899 0.0851,1.24044 -1.14931,2.29762 -2.24147,1.91976 z M 238.98351,63.649985 c -0.67812,-0.238158 -0.19902,-1.731263 0.55231,-1.721302 0.32709,0.0043 0.67089,0.2432 0.76398,0.530808 0.20298,0.627025 -0.67073,1.417227 -1.31629,1.190494 z M 134.76773,140.04413 c -0.21934,-0.0771 -0.20261,-0.29863 0.0373,-0.49241 0.23989,-0.19377 0.53785,-0.22642 0.66214,-0.0726 0.12423,0.15386 0.10752,0.37545 -0.0372,0.49241 -0.14479,0.1169 -0.44275,0.1496 -0.66215,0.0726 z M 239.66757,52.996766 c -0.59592,-0.209296 -0.57687,-0.920939 0.0379,-1.417592 0.61892,-0.499951 0.93412,-0.268865 0.84005,0.615882 -0.0787,0.739532 -0.34988,0.987198 -0.87802,0.801714 z m -21.90191,16.084972 c -0.59501,-0.11975 -0.70642,-0.30558 -0.66161,-1.103473 0.084,-1.495241 0.7309,-1.764256 1.48683,-0.618261 0.72349,1.096813 0.31406,1.951023 -0.82522,1.721734 z m 17.61352,-17.899004 c -0.71898,-0.416375 -1.00406,-1.428365 -0.45968,-1.631856 0.24403,-0.09121 0.68096,0.127918 0.97096,0.48694 0.6194,0.76678 0.25289,1.587474 -0.51128,1.144916 z m -12.13212,6.33954 c -0.45444,0.201041 -1.02192,0.240224 -1.26108,0.08706 -0.34234,-0.219169 -0.10426,-0.496782 1.11833,-1.304225 1.43607,-0.948421 2.2561,-1.236297 2.1699,-0.761747 -0.0883,0.485935 -1.27826,1.647606 -2.02715,1.978907 z m 8.0119,-21.615685 c -0.17423,-0.327316 -0.12967,-0.74626 0.099,-0.930988 0.59968,-0.484405 1.1697,0.39846 0.65271,1.010918 -0.31572,0.374004 -0.52169,0.352112 -0.75171,-0.07992 z M 114.11511,128.49879 c -0.13157,-0.16295 -0.0506,-0.32016 0.1801,-0.34935 0.23069,-0.0292 0.46428,0.002 0.51908,0.0703 0.0548,0.0679 -0.0262,0.22506 -0.1801,0.34935 -0.15386,0.12429 -0.38745,0.0927 -0.51908,-0.0703 z M 234.26175,29.421104 c -0.19377,-0.239885 -0.22641,-0.537855 -0.0726,-0.662145 0.15386,-0.12429 0.37545,-0.107517 0.49241,0.03727 0.11689,0.144787 0.1496,0.442748 0.0726,0.662136 -0.0771,0.219391 -0.29864,0.202635 -0.49242,-0.03726 z M 121.6216,118.26382 c -0.78056,0.41235 -1.8916,0.79684 -2.469,0.85444 -1.32086,0.13177 -3.28129,-0.90537 -3.7905,-2.0053 -0.42901,-0.92673 -0.0434,-1.41475 1.25454,-1.58738 0.73842,-0.0982 0.85749,-0.25896 0.86418,-1.16657 0.004,-0.57894 -0.0654,-1.24836 -0.15483,-1.48757 -0.12587,-0.3366 0.0583,-0.49181 0.81472,-0.68651 1.64495,-0.42342 6.91672,3.34139 5.86663,4.18964 -0.21823,0.17627 -0.52497,0.50478 -0.68166,0.73001 -0.15669,0.22524 -0.92351,0.74692 -1.70408,1.15924 z M 222.03506,36.981133 c -1.29228,0.356396 -4.05706,-0.49274 -5.49233,-1.686842 -0.57186,-0.475756 -1.02057,-1.304326 -1.33119,-2.458078 l -0.46857,-1.740403 1.50029,-0.943911 c 1.65492,-1.041195 2.80074,-2.972527 2.20274,-3.712826 -0.22845,-0.282825 -0.0333,-0.654729 0.62112,-1.183317 0.72975,-0.589471 1.30104,-0.703516 2.42783,-0.484683 2.62988,0.510762 5.09579,2.256202 5.40903,3.828689 0.23722,1.190813 -0.0878,3.92396 -0.60532,5.090615 -0.48727,1.098378 -2.80744,2.889152 -4.2636,3.290753 z M 101.72995,132.08024 c -1.37757,-0.14647 -2.712886,-0.52409 -2.967396,-0.83916 -0.55269,-0.68423 -0.62756,-0.60949 1.290686,-1.28867 1.4677,-0.51964 1.55144,-0.6005 1.69436,-1.63608 0.14128,-1.02366 0.22251,-1.10423 1.34568,-1.3345 1.32868,-0.2724 3.39681,0.09 3.87218,0.67845 0.69324,0.85821 0.12845,2.37654 -1.31873,3.5456 -1.31973,1.06605 -1.57601,1.12326 -3.91678,0.87436 z M 139.1774,98.572835 c -0.0292,-0.230654 0.003,-0.464276 0.0703,-0.519085 0.0678,-0.05483 0.22506,0.02623 0.34935,0.180103 0.12424,0.153869 0.0927,0.387457 -0.0703,0.519086 -0.16295,0.131629 -0.32016,0.05058 -0.34935,-0.180104 z m -1.65836,-1.460546 c -0.63166,-0.221848 -1.26644,-1.816992 -0.79342,-1.993803 0.46059,-0.17217 2.00536,0.838348 1.95829,1.281031 -0.0496,0.466184 -0.71231,0.871705 -1.16487,0.712772 z M 137.2288,92.37955 c -0.93824,-0.396599 -1.04274,-1.729342 -0.17196,-2.192934 0.9467,-0.50399 2.16874,1.129988 1.43463,1.918142 -0.33566,0.360371 -0.81392,0.464437 -1.26263,0.274758 z m -16.52347,12.96668 c -0.19719,-0.021 -0.60254,-0.34023 -0.90081,-0.70949 -0.45829,-0.56734 -0.41203,-0.75392 0.29854,-1.20428 0.66723,-0.42296 0.95748,-0.38856 1.40581,0.16645 0.39654,0.4909 0.41441,0.8613 0.06,1.24243 -0.27778,0.29863 -0.66627,0.52595 -0.86351,0.50489 z M 140.9344,88.061505 c -0.67245,-0.07151 -1.1428,-1.0587 -0.84268,-1.768681 0.47299,-1.118924 1.08578,-1.451373 1.97918,-1.073721 0.67587,0.285705 0.77994,0.478839 0.60743,1.127397 -0.22086,0.830384 -1.18123,1.774827 -1.74393,1.715005 z M 90.271494,125.69704 c -2.2561,-0.58737 -4.27528,-1.68255 -6.161553,-3.34197 -2.255762,-1.98445 -2.651098,-2.83618 -1.517679,-3.26975 2.597052,-0.9935 4.402092,-2.98737 4.107172,-4.53691 -0.17908,-0.94102 0.8904,-1.83308 1.98276,-1.65387 1.26198,0.20709 3.33912,1.87428 4.48322,3.59842 0.87324,1.31591 0.96913,1.75501 0.65468,2.99755 -0.20263,0.80069 -0.42222,2.06722 -0.48796,2.81452 -0.11554,1.31384 -0.78913,2.84258 -1.50832,3.42354 -0.19185,0.15497 -0.89041,0.14075 -1.55235,-0.0316 z M 127.97526,95.232007 c -0.99294,-0.419726 -1.12631,-2.121136 -0.1431,-1.825592 0.78507,0.23599 1.42984,1.256948 1.10827,1.754898 -0.13361,0.206798 -0.56789,0.238637 -0.96517,0.07069 z m 77.63293,-62.180675 c -0.8015,-0.08522 -0.82634,-0.891686 -0.13974,-4.540977 0.93005,-4.943401 1.76369,-7.368832 2.30314,-6.701009 0.18146,0.224648 -0.41987,7.370982 -0.76482,9.089334 -0.22132,1.102497 -0.93559,2.201881 -1.39858,2.152641 z m -13.36245,5.46263 c -0.24611,-0.658408 0.28666,-1.230944 0.68573,-0.73691 0.19679,0.243628 0.15847,0.603982 -0.0852,0.80078 -0.24364,0.196797 -0.51388,0.168051 -0.60057,-0.06387 z m -4.56802,0.0697 c -1.00862,0.300357 -2.25174,-0.352535 -2.59479,-1.362827 -0.19028,-0.560418 -0.0246,-0.86969 0.72815,-1.35855 0.60508,-0.393023 1.02724,-0.968341 1.11348,-1.517855 0.26924,-1.714513 2.17684,-1.808032 2.94696,-0.144503 0.69189,1.494579 -0.50179,3.879862 -2.1938,4.383735 z m -71.41776,55.849733 c -1.96907,0.103574 -3.22484,-0.214772 -4.36043,-1.105425 -1.12813,-0.884784 -1.06728,-1.578975 0.17404,-1.985026 1.21626,-0.397867 1.69178,-1.050306 1.20483,-1.653134 -0.19626,-0.24296 -0.10208,-0.62552 0.21755,-0.883711 0.6541,-0.528359 2.87995,0.145101 3.65979,1.107311 0.54269,0.669676 1.25681,3.45847 1.04209,4.069849 -0.0685,0.195129 -0.94057,0.397674 -1.93787,0.450136 z m 12.97758,-11.706962 c -0.71589,-0.07612 -0.92992,-0.7995 -0.37029,-1.251551 0.3911,-0.315921 0.67329,-0.292807 0.86633,0.07093 0.31611,0.595525 0.0461,1.23826 -0.49604,1.180621 z m 2.12372,-3.272966 c -0.4126,-0.510782 -2.81798,0.04692 -4.43601,1.028537 -0.87157,0.528739 -1.89856,1.023497 -2.28219,1.099437 -0.9482,0.187702 -2.06912,-1.309139 -3.419,-4.565636 l -1.07673,-2.597563 1.17149,-0.827138 c 1.48015,-1.045012 2.20085,-2.343721 1.971,-3.55144 -0.14766,-0.77593 -0.44762,-1.110502 -1.70971,-1.906948 -1.93555,-1.221428 -2.75757,-2.239322 -3.09705,-3.835188 -0.45634,-2.144871 -0.39209,-2.387631 0.6509,-2.459127 1.33047,-0.09123 1.6859,-0.513164 1.24132,-1.473517 -0.48248,-1.042188 0.27553,-1.736056 2.17138,-1.987646 2.0976,-0.278378 3.71814,0.463464 5.30889,2.430264 1.70707,2.111112 1.78375,3.00481 0.46435,5.429149 -0.56441,1.037096 -0.89485,2.048259 -0.73429,2.247023 0.16056,0.198775 0.85556,0.563915 1.54443,0.811432 0.94467,0.339435 1.32386,0.668202 1.54286,1.337685 0.15964,0.488245 0.73469,1.437811 1.27783,2.110192 1.49744,1.853777 1.73833,2.917979 0.77675,3.431591 -1.05143,0.561614 -1.57535,1.875323 -1.02138,2.56111 0.24422,0.302333 0.31813,0.651375 0.16427,0.775666 -0.15388,0.124289 -0.38296,0.09825 -0.50907,-0.05789 z m 7.83654,-8.727379 c -1.00934,-0.107326 -1.29538,-0.789327 -0.52422,-1.249893 0.45091,-0.269354 0.91533,-0.219943 1.29954,0.13818 0.65705,0.612447 0.23403,1.219036 -0.77532,1.111713 z m 25.79978,-23.695679 c -0.73595,-0.426202 -0.6753,-0.99628 0.0972,-0.914092 0.45613,0.0485 0.58353,0.204014 0.5354,0.65417 -0.0478,0.449927 -0.19834,0.511798 -0.63289,0.260153 z m -5.53514,3.874448 c -0.74074,-0.07876 -0.99581,-0.957839 -0.86387,-2.977159 0.11118,-1.702587 -0.0314,-2.328161 -0.72742,-3.189788 -1.09257,-1.352575 -1.09409,-1.924934 -0.0139,-5.167963 0.74353,-2.231998 1.05215,-2.734843 2.02264,-3.295526 1.41671,-0.818482 1.5746,-1.762771 0.35612,-2.129774 -0.44294,-0.133423 -1.33668,-0.418303 -1.9861,-0.633072 l -1.18078,-0.390503 1.65676,-1.010256 c 1.46539,-0.893567 1.67558,-1.146597 1.81965,-2.190492 0.2441,-1.768819 1.21841,-1.712126 3.23417,0.188171 0.89812,0.84666 1.70569,1.764168 1.79464,2.038904 0.11649,0.360103 -0.56008,1.127572 -2.42359,2.749147 l -2.58531,2.249625 -0.2518,2.052649 c -0.13851,1.128952 -0.10167,2.763531 0.0818,3.632394 0.18348,0.868865 0.1987,2.263196 0.0338,3.098508 -0.16487,0.835304 -0.21643,2.177192 -0.11458,2.981966 0.17636,1.393406 -0.11377,2.071701 -0.85237,1.99315 z M 92.007114,102.93118 c -1.99452,-0.21207 -2.62644,-1.19847 -1.57935,-2.4652 0.41713,-0.504692 0.81374,-1.192101 0.88127,-1.527669 0.0958,-0.476167 0.39987,-0.477474 1.38481,-0.0061 1.63304,0.781533 1.94808,1.203829 1.8171,2.435749 -0.14758,1.3881 -0.73017,1.75184 -2.50381,1.56324 z M 195.35572,16.477727 c -0.6585,0.02879 -0.86077,-0.106076 -0.81741,-0.545051 0.0846,-0.856878 1.18843,-1.308059 1.68779,-0.689869 0.56334,0.697386 0.21801,1.187341 -0.87038,1.23492 z m -4.84173,1.709293 c -0.61781,-0.764816 -1.05933,-3.901134 -0.77828,-5.528448 0.10208,-0.590989 0.0389,-2.7694085 -0.14044,-4.8409411 -0.3706,-4.281454 -0.11322,-5.4148415 1.19033,-5.2430271 0.46966,0.061904 0.75936,0.259515 0.65213,0.4448247 -0.91396,1.579212 -1.04564,3.5090267 -0.5874,8.6068315 0.28344,3.152953 0.4471,6.071731 0.36368,6.486143 -0.13361,0.664009 -0.21677,0.672875 -0.70002,0.07462 z M 84.843224,101.94919 c -0.6464,-0.14782 -1.342171,-0.46995 -1.546166,-0.71585 -0.203928,-0.24596 -1.394286,-1.0767 -2.645077,-1.846206 -1.250804,-0.769519 -2.514874,-1.695947 -2.809028,-2.058742 -0.486338,-0.5999 -0.434931,-0.713416 0.567852,-1.253479 0.925659,-0.498533 1.057927,-0.708497 0.824069,-1.307678 -0.375369,-0.96171 0.292564,-1.420879 1.501204,-1.031994 0.837159,0.269354 1.080151,0.536471 1.56411,1.719294 0.50466,1.233431 0.778725,1.50884 2.298946,2.310108 2.13483,1.125213 2.46154,1.518105 2.32563,2.796627 -0.14417,1.35588 -0.67465,1.7096 -2.0815,1.38789 z m 13.70218,-10.610144 c -0.7798,0.227008 -1.38204,-0.898067 -0.90825,-1.696697 0.64154,-1.081408 1.32039,-1.171248 1.90198,-0.251827 0.504586,0.797712 0.0765,1.636953 -0.99373,1.948524 z m 9.765356,-15.525304 c -0.87336,0.177916 -1.96444,0.308081 -2.42461,0.289258 -1.07823,-0.04412 -2.50111,-1.7804 -3.27219,-3.992876 -0.32002,-0.918285 -0.80862,-1.771854 -1.08574,-1.896817 -0.27712,-0.124941 -0.94015,-0.394851 -1.47339,-0.599799 -1.339326,-0.514766 -3.337216,-3.026429 -3.149406,-3.959428 0.11431,-0.568149 0.31884,-0.745533 0.94769,-0.822142 1.82839,-0.22273 2.798936,-2.245194 2.12594,-4.429756 l -0.47145,-1.530303 -1.87061,-0.295383 c -2.13199,-0.33667 -3.17586,-1.31377 -3.17388,-2.970921 10e-4,-0.968031 0.10167,-1.090181 1.15267,-1.400098 1.31773,-0.388589 1.58548,-0.868785 1.17836,-2.113359 -0.49258,-1.505845 0.56423,-1.782122 3.969736,-1.037784 3.44464,0.75289 4.14208,1.047335 5.61528,2.370636 1.39069,1.249166 6.81785,1.758233 8.28293,0.776926 1.52662,-1.022517 2.17761,-0.07175 1.11572,1.629419 -1.44206,2.310187 -1.29389,3.164607 0.7545,4.350857 1.04067,0.602677 -1.61115,1.116285 -3.81533,0.738952 -1.56758,-0.268344 -2.53259,-0.705504 -3.72241,-1.686294 -0.88342,-0.728213 -1.78461,-1.447934 -2.00263,-1.599387 -0.45532,-0.316304 -4.20748,0.538246 -4.94325,1.125829 -0.57337,0.457906 0.4036,1.92005 1.35019,2.0207 0.31706,0.03371 1.20586,0.629734 1.97513,1.324477 1.24044,1.12031 1.44417,1.49485 1.80125,3.311471 0.33648,1.711899 0.68761,2.401124 2.13808,4.196746 1.6119,1.995476 1.72641,2.256857 1.60764,3.671184 -0.14938,1.779636 -0.47227,2.092333 -2.6102,2.527876 z m 4.22082,-6.834388 c -0.46053,-0.04897 -1.17916,-0.560404 -1.70888,-1.216195 -0.79659,-0.986132 -0.82875,-1.170229 -0.25024,-1.431128 0.3652,-0.164655 0.93013,-0.930251 1.25549,-1.701236 0.57441,-1.361163 0.61497,-1.395879 1.39853,-1.197147 0.92116,0.233652 2.25274,2.153419 2.2385,3.227278 -0.0122,0.910134 -1.92903,2.425194 -2.93344,2.318375 z m 15.34531,-14.44296 c -0.12423,-0.153869 -0.0298,-0.438311 0.21016,-0.632085 0.23989,-0.193774 0.46005,-0.163559 0.48924,0.06712 0.0292,0.230653 -0.0654,0.51512 -0.21016,0.632074 -0.1448,0.116963 -0.36495,0.08676 -0.48924,-0.06711 z M 96.257414,76.058636 c -1.45684,0.509133 -3.46662,-1.039692 -2.43278,-1.874815 0.30983,-0.250265 0.67899,-0.789328 0.82034,-1.197917 0.41255,-1.192418 1.34983,-1.258626 2.23878,-0.158128 0.55527,0.687384 0.70617,1.246746 0.51525,1.909845 -0.28849,1.002082 -0.3142,1.031834 -1.14159,1.321015 z m 58.856796,-49.16109 c -1.03625,0.02507 -1.87426,-0.04688 -1.86223,-0.159881 0.0491,-0.461815 2.52761,-1.10832 3.65335,-0.952954 1.15254,0.159058 1.18233,0.187305 0.6504,0.616978 -0.30658,0.247651 -1.40527,0.470783 -2.44152,0.495857 z M 72.678082,91.93815 c -2.593575,1.14713 -4.60436,1.480496 -6.352512,1.0532 -0.845355,-0.206618 -1.853466,-0.252173 -2.240225,-0.10121 -1.073763,0.41911 -2.454198,-1.471994 -2.417335,-3.311582 0.02379,-1.187407 0.192414,-1.514295 0.998705,-1.936174 1.440962,-0.753986 1.600334,-2.539402 0.36338,-4.070714 -1.069535,-1.324036 -1.847934,-1.47134 -5.322489,-1.007238 -1.52491,0.203694 -2.422568,0.104512 -2.949792,-0.325917 -0.416758,-0.340302 -1.267428,-0.883175 -1.890288,-1.20641 -1.584023,-0.822049 -2.786669,0.149426 -2.761673,2.230822 0.01087,0.937928 -0.113904,1.327348 -0.338438,1.053325 -0.19637,-0.238769 -0.271726,-1.09518 -0.16837,-1.902403 0.120022,-0.937271 -0.17473,-2.442946 -0.815573,-4.16635 -1.335227,-3.590826 -1.364138,-3.941944 -0.335149,-4.071028 0.570339,-0.07155 1.654377,-0.864483 3.636482,-2.659963 2.580268,-2.337322 2.815254,-2.644761 2.7236,-3.563547 -0.20197,-2.024589 2.279236,-2.611907 3.684572,-0.872155 0.994451,1.231092 2.116249,1.419356 3.656178,0.613582 0.572867,-0.299726 1.216633,-0.483505 1.430592,-0.408348 0.213958,0.07517 0.975149,1.18427 1.691471,2.464765 0.956147,1.709166 1.568881,2.493692 2.304667,2.950873 0.963066,0.598301 0.977134,0.674501 0.359058,1.945624 -0.577611,1.187926 -0.552886,1.452952 0.242272,2.596735 0.533408,0.767188 0.775014,1.464649 0.607596,1.753737 -0.342027,0.590604 0.525633,1.722579 1.629979,2.126442 0.711374,0.260163 0.782449,0.424099 0.535692,1.235471 -0.156721,0.515297 -0.05084,1.224707 0.235543,1.579326 0.28604,0.354102 0.514216,1.236622 0.50708,1.961132 -0.01889,1.921524 0.293175,2.550164 1.623088,3.26904 1.102959,0.596203 1.799354,1.55497 1.344619,1.851263 -0.107517,0.06938 -0.999358,0.482771 -1.982771,0.917724 z M 124.92406,48.635636 c -0.81309,-0.08646 -1.57579,-0.277828 -1.6949,-0.425268 -0.26898,-0.332996 0.40626,-3.192451 0.83583,-3.539446 0.17322,-0.139922 0.3411,-0.04771 0.37307,0.204901 0.0319,0.252622 0.61606,0.60453 1.29791,0.782087 1.40867,0.366735 1.87408,0.805645 1.78115,1.67971 -0.10657,1.002613 -1.02897,1.464326 -2.59306,1.298016 z M 80.906989,80.19347 c -0.437106,-0.04647 -0.881918,-0.192412 -0.988456,-0.324297 -0.185795,-0.230019 -0.128313,-1.745556 0.07231,-1.907652 0.904101,-0.730306 2.312768,0.160368 2.183056,1.38026 -0.08509,0.799823 -0.313075,0.953112 -1.266952,0.851658 z M 154.9957,19.026231 c -0.63064,0.01975 -0.97289,0.268103 -1.55162,1.125812 -0.59875,0.88743 -0.85487,1.06234 -1.32291,0.903508 -1.62316,-0.550888 -0.89058,-1.602647 2.06852,-2.969762 1.06043,-0.489917 1.59074,-0.550056 1.77574,-0.201353 0.36146,0.681297 -0.004,1.111537 -0.96972,1.141805 z m -71.716652,52.78632 c -1.116185,-0.555796 -2.5407,-1.515386 -3.165572,-2.132425 -0.97712,-0.96488 -1.46214,-1.128774 -3.465272,-1.170997 -2.720963,-0.05735 -3.415415,-0.290536 -3.870531,-1.299641 -0.286637,-0.635606 -0.180657,-0.822528 0.750929,-1.324249 0.828486,-0.446195 1.039632,-0.723424 0.893785,-1.173957 -0.317167,-0.979773 0.785942,-1.484424 2.165303,-0.990582 1.393063,0.498731 2.365508,1.445504 2.141083,2.08452 -0.07707,0.219348 0.108196,0.706194 0.411525,1.081793 0.459275,0.568557 0.688797,0.572086 1.370934,0.02107 1.456757,-1.176729 1.258239,-1.917133 -1.394381,-5.200989 l -2.382702,-2.949697 1.075054,-0.107244 c 1.042554,-0.103996 1.065607,-0.136131 0.762536,-1.062656 -0.469102,-1.434026 0.315073,-1.429574 2.914248,0.01653 1.408014,0.783374 3.153187,1.399362 4.365187,1.540761 2.25977,0.263645 3.40277,1.27136 4.08115,3.598103 0.53041,1.819297 0.0351,2.70933 -2.4144,4.33801 -2.42776,1.614273 -2.87267,2.403484 -2.19592,3.895181 0.76753,1.691736 0.1678,1.937291 -2.042956,0.836473 z M 110.16483,50.351468 c -0.57702,-0.243916 -0.66472,-0.38766 -0.37784,-0.619391 0.4112,-0.332158 1.48355,-0.301151 1.76811,0.05114 0.3671,0.454457 -0.66319,0.875562 -1.39024,0.568235 z m 19.27726,-17.689943 c -0.91968,-0.532601 -1.03977,-0.888186 -0.29665,-0.878335 0.76498,0.01019 1.47404,0.658528 1.07376,0.981872 -0.13741,0.110996 -0.48711,0.0644 -0.77711,-0.103534 z M 75.667713,71.745198 c -0.124235,-0.153868 -0.10004,-0.38146 0.05383,-0.505752 0.153867,-0.124289 0.381458,-0.100095 0.505748,0.05377 0.124371,0.153869 0.10004,0.381458 -0.05383,0.50575 -0.153867,0.12429 -0.381445,0.100095 -0.505734,-0.05377 z M 121.51755,30.82427 c -0.54517,-0.315708 -0.5563,-0.751616 -0.0302,-1.176643 0.20516,-0.165724 0.57641,-0.04953 0.82499,0.258212 0.51387,0.636133 -0.0859,1.329041 -0.79486,0.918431 z m 19.13684,-17.701858 c -0.18645,-0.230813 -0.27674,-0.728917 -0.20066,-1.106906 0.11254,-0.558941 0.20159,-0.608899 0.47728,-0.267602 0.18644,0.230802 0.27674,0.728908 0.20068,1.106898 -0.11255,0.55894 -0.2016,0.608907 -0.4773,0.26761 z M 68.065852,67.746978 c -0.204199,-0.07175 -0.30723,-0.312861 -0.228951,-0.535803 0.07829,-0.222968 0.300896,-0.209159 0.494697,0.03076 0.396954,0.491412 0.287521,0.699357 -0.265746,0.505046 z M 106.58855,32.875885 c -1.05272,-0.02505 -1.07799,-0.04963 -0.88578,-0.86148 0.24313,-1.026894 1.48067,-1.378785 2.10982,-0.599916 0.61941,0.766803 0.0136,1.490847 -1.22404,1.461396 z M 73.112768,55.964292 c -2.122909,-0.36615 -2.818462,-1.309393 -1.758863,-2.385272 0.406537,-0.412781 0.885467,-1.205238 1.064289,-1.76104 0.308589,-0.959079 0.3784,-0.999152 1.370676,-0.786966 1.339209,0.286384 1.96491,1.080292 2.190341,2.779262 0.244732,1.844159 -0.671426,2.532607 -2.866457,2.154005 z m -5.566732,3.41716 c -1.127711,-0.476701 -1.266925,-0.856221 -0.531872,-1.44998 1.509101,-1.219015 2.757336,-0.890013 2.142414,0.564675 -0.440844,1.042881 -0.787261,1.233319 -1.610542,0.885305 z M 78.375682,46.588836 c 0.136685,-0.243911 0.386025,-0.42889 0.554055,-0.411042 0.16803,0.01786 0.05614,0.217513 -0.248484,0.443553 -0.336752,0.249828 -0.456611,0.237083 -0.305558,-0.03249 z M 61.969939,57.719655 c -0.680493,-0.01688 -1.82499,-0.319528 -2.543324,-0.672552 -0.71832,-0.353037 -2.609872,-0.749447 -4.203423,-0.880915 -2.250963,-0.185691 -3.092458,-0.08145 -3.771727,0.467252 -0.733245,0.592305 -1.066192,0.602555 -2.063388,0.06352 -1.385247,-0.748777 -2.823532,-2.401717 -2.612536,-3.002437 0.08047,-0.229045 0.612285,-0.462969 1.181972,-0.519752 1.532059,-0.152837 1.85212,-0.580042 1.871136,-2.497617 l 0.01713,-1.733354 2.369544,0.210856 c 1.303243,0.115957 2.762936,0.0204 3.243769,-0.212373 0.933774,-0.452032 1.724256,-0.059 2.978961,1.481079 0.572147,0.701803 0.944091,0.847567 1.610053,0.629728 0.476388,-0.155839 1.434125,-0.154476 2.128278,0.003 1.042065,0.236435 1.449186,0.561222 2.335196,1.862924 0.590197,0.867127 1.044185,1.776343 1.008817,2.020511 -0.03534,0.244189 -0.570325,0.976495 -1.188768,1.627364 -0.932836,0.981723 -1.335294,1.178218 -2.361714,1.152732 z M 27.79948,57.015518 c -0.367594,-0.465876 -0.429644,-0.671834 -0.138847,-0.456923 0.290824,0.214888 0.591244,0.596327 0.667376,0.847828 0.07639,0.25133 -0.161574,0.07548 -0.528746,-0.390735 z"
       id="path109" />
    <g
       id="g5248"
       transform="rotate(-5.341855,2411.7319,918.34409)"
       style="filter:url(#filter451)">
      <path
         style="fill:#ff0000;stroke-width:1.10485"
         d="m 784.65997,-242.27975 c -2.43358,-2.68906 -5.18523,-9.51039 -5.18523,-12.85413 0,-4.36884 -2.35437,-8.36809 -5.37223,-9.12553 -1.53103,-0.38426 -5.05038,-0.0639 -7.82078,0.71195 -2.7704,0.77583 -7.07829,1.81949 -9.5731,2.31923 -2.49479,0.49976 -6.79776,2.0075 -9.56213,3.35053 l -5.02614,2.44189 -11.00635,-3.95324 c -6.05349,-2.17429 -17.14367,-5.54944 -24.64485,-7.50034 -7.50117,-1.95091 -17.88414,-5.29269 -23.07325,-7.4262 -5.18912,-2.13351 -12.41786,-4.7116 -16.06388,-5.72908 -10.38808,-2.89896 -10.71057,-3.97508 -11.57708,-38.63125 -0.74428,-29.76739 -0.94415,-30.91501 -6.40403,-36.77102 -3.21718,-3.45059 -4.17318,-1.65302 8.95143,-16.83141 4.7564,-5.50069 9.97683,-12.14496 11.60097,-14.76505 5.55008,-8.95349 7.97622,-11.07807 19.27071,-16.87537 6.217,-3.1911 12.74052,-7.33409 14.49672,-9.20666 l 3.19309,-3.40466 22.21856,0.31452 c 29.60992,0.41915 32.39133,0.95063 49.75341,9.50696 7.94728,3.91656 16.87792,7.9745 19.84584,9.01764 2.96793,1.04314 6.9454,3.29325 8.83884,5.00024 2.8427,2.56279 3.23129,3.45151 2.22995,5.10009 -1.88305,3.10018 -8.99857,5.03751 -15.91259,4.33249 -3.34218,-0.3408 -14.52883,-3.13164 -24.85922,-6.20187 -24.71233,-7.3446 -39.95263,-10.41758 -46.66978,-9.41028 -4.51449,0.67699 -6.27485,1.8486 -13.87638,9.23545 -13.42595,13.04677 -16.04542,17.17144 -18.5196,29.16125 -2.66315,12.90561 -2.82381,28.34936 -0.34916,33.5643 2.93357,6.18204 30.15041,29.55218 40.6613,34.91445 5.21627,2.66114 13.97594,2.354 24.10998,-0.84537 9.96853,-3.14712 11.25544,-5.172 11.71409,-18.43158 l 0.38502,-11.13077 -6.46172,0.66875 c -3.55394,0.36781 -9.75987,1.00367 -13.79094,1.41302 l -7.32923,0.74428 -7.03388,-8.51574 c -3.86863,-4.68366 -8.01061,-10.1608 -9.20439,-12.17142 l -2.17051,-3.65568 4.10077,-6.17623 c 2.70997,-4.0815 5.1116,-6.42992 7.08114,-6.92424 3.51713,-0.88274 19.6889,2.58234 37.2733,7.98647 14.63087,4.49643 16.50181,4.59218 19.62149,1.00424 3.22846,-3.71305 4.38702,-3.5077 8.9967,1.59466 5.11967,5.66687 5.91334,9.23518 6.77188,30.44612 0.81743,20.19507 1.82959,25.27991 5.88581,29.56925 l 2.88686,3.05274 -5.07353,5.23366 c -5.99288,6.18203 -7.56533,9.09414 -10.88003,20.1492 -4.98025,16.61 -8.08407,20.52566 -12.44785,15.70374 z"
         id="path4956"
         transform="scale(0.26458333)" />
      <path
         style="fill:#ff0000;stroke-width:1.10485"
         d="m 1015,-205.77912 c -0.5453,-1.06342 -2.7835,-7.65112 -4.9739,-14.63932 -2.2877,-7.29877 -6.1575,-16.46726 -9.0933,-21.54466 -6.48649,-11.21782 -7.90931,-15.211 -9.95941,-27.95125 -1.84442,-11.46198 -3.05038,-14.16146 -6.74018,-15.08754 -3.23738,-0.81253 -11.7952,1.10031 -17.77319,3.97263 -3.94146,1.89381 -5.72567,3.96871 -10.9709,12.75833 -3.44516,5.77319 -7.43816,11.2661 -8.87334,12.20645 -4.16133,2.72661 -32.91316,1.32853 -46.83296,-2.27728 -30.26375,-7.83958 -52.47491,-23.29772 -64.82876,-45.11841 -6.17329,-10.90392 -16.18197,-34.09462 -18.38678,-42.60325 -3.17978,-12.27118 -2.05294,-17.26639 4.15788,-18.43155 5.02118,-0.94198 6.83806,-3.21306 10.79841,-13.49798 6.70793,-17.42032 7.41182,-18.11294 13.33907,-13.12549 1.80544,1.51918 3.97365,2.76214 4.81825,2.76214 0.84459,0 4.13392,-2.30766 7.30961,-5.12812 9.20417,-8.17461 13.55046,-9.65252 29.81534,-10.13842 11.48019,-0.34296 15.59155,-0.008 23.06138,1.88142 11.80267,2.98465 19.57533,6.60427 25.31303,11.78794 9.64781,8.71622 25.79947,36.76928 30.52083,53.01023 1.5118,5.20038 1.77034,8.9656 1.24813,18.17642 -0.72363,12.76375 0.30613,19.64527 3.26335,21.80764 1.1483,0.83966 5.19779,1.41065 10.00442,1.41065 h 8.07524 v -32.58447 -32.58448 L 977.7961,-382.6613 c -5.77286,-12.06909 -10.49612,-22.57181 -10.49612,-23.33938 0,-1.05584 1.69961,-1.21356 6.98188,-0.64788 l 6.98187,0.7477 1.4029,-10.83889 c 2.3874,-18.44517 0.90177,-16.4911 13.19035,-17.34937 15.39602,-1.0753 18.66352,-2.20614 24.47602,-8.47065 l 4.9718,-5.35853 16.5729,3.14938 c 34.3485,6.52735 48.8723,11.50389 63.0042,21.58824 8.2578,5.89258 10.9793,9.38937 12.7353,16.36285 1.7459,6.9339 3.0804,7.82777 10.3332,6.92159 11.6125,-1.45089 18.022,-6.6805 19.9533,-16.28038 0.6702,-3.33119 3.3301,-6.43017 5.5192,-6.43017 0.7999,0 4.0054,1.75478 7.1232,3.8995 8.4776,5.83156 13.2074,6.3674 73.0238,8.27284 30.5185,0.97216 38.3252,1.90741 43.6417,5.22831 2.1141,1.32049 2.1237,1.44706 0.2226,2.92313 -1.3168,1.02243 -2.7229,5.20079 -4.1685,12.38674 -2.6337,13.09265 -3.9529,15.35643 -9.511,16.32207 -2.3214,0.4033 -20.9565,1.04915 -41.4114,1.43522 l -37.1907,0.70195 -0.6996,12.25638 c -0.3847,6.74101 -0.2631,13.74794 0.2702,15.57095 1.1201,3.82816 -1.2521,3.67805 27.302,1.72757 40.476,-2.76485 46.1018,-2.80397 49.123,-0.34164 l 2.7191,2.21613 -2.7191,4.04365 c -3.3942,5.04758 -10.8764,10.13233 -18.0403,12.25979 -3.0126,0.89465 -14.2218,2.90074 -24.9092,4.45795 -26.6293,3.88005 -30.5543,5.05926 -32.0116,9.6174 -1.0787,3.3742 -5.6502,25.08739 -5.6502,26.83698 0,1.74642 53.2857,-0.40423 67.826,-2.73751 17.0082,-2.72929 21.6098,-2.80499 36.9933,-0.60861 16.6417,2.37603 16.7147,2.3992 16.7147,5.30911 0,4.08355 -5.0969,13.13008 -10.189,18.08464 l -4.7266,4.59889 -46.4039,1.19616 c -25.5221,0.65788 -50.5056,1.48471 -55.5189,1.83739 l -9.115,0.64124 v 3.15377 c 0,1.73457 -1.1767,4.52173 -2.6149,6.19367 l -2.6148,3.03991 -2.3139,-5.23108 c -2.988,-6.75482 -8.0179,-9.09705 -21.8059,-10.15424 -11.848,-0.90842 -13.1225,-0.18146 -14.2667,8.13774 -0.4081,2.96755 -1.7232,7.00884 -2.9223,8.98064 -2.0071,3.30049 -2.505,3.52654 -6.2709,2.84757 -8.5582,-1.54303 -15.8589,-7.5794 -52.0591,-43.04343 -33.6309,-32.94694 -45.3724,-43.72874 -47.6212,-43.72874 -1.7445,0 -2.332,11.66302 -3.2279,64.08155 -0.4933,28.86432 -1.2605,53.35066 -1.705,54.41408 -0.4444,1.06342 -1.2345,1.93349 -1.7558,1.93349 -0.5213,0 -1.3939,-0.87007 -1.9391,-1.93349 z m 126.8388,-61.09849 c 5.0785,-1.85342 10.6427,-4.37319 12.3649,-5.5995 3.8682,-2.75443 4.0004,-5.7435 0.9136,-20.64926 -1.2197,-5.88972 -2.8356,-15.66778 -3.5908,-21.72903 -1.2143,-9.74542 -1.6715,-11.16869 -3.9521,-12.30165 -5.2709,-2.61855 -5.2394,-3.43946 0.3304,-8.62628 l 5.3097,-4.94464 -0.7757,-6.96514 c -1.4191,-12.74289 -5.0067,-29.02873 -6.9732,-31.65481 -1.0677,-1.42592 -3.8529,-3.24798 -6.1893,-4.04902 -2.3364,-0.80104 -5.3515,-2.49319 -6.7003,-3.76033 -8.2997,-7.7971 -13.745,4.63491 -11.6787,26.66298 0.6588,7.02332 0.5893,10.42976 -0.2232,10.93192 -1.5282,0.94443 -14.97,5.19618 -18.6795,5.90843 -1.5728,0.30201 -5.4165,2.86852 -8.5415,5.70337 -3.1249,2.83484 -8.0529,6.70341 -10.9509,8.59681 -8.2432,5.38558 -7.8811,6.95653 4.3327,18.79548 6.4385,6.24095 13.7902,12.05146 19.4356,15.36112 4.994,2.92777 9.08,5.85733 9.08,6.51012 0,1.57809 7.6817,19.53509 9.7078,22.69336 2.1593,3.36579 5.6381,3.18254 16.7805,-0.88393 z m -227.0194,-26.35918 c 12.35129,-2.58191 21.67696,-6.05547 25.98131,-9.67735 3.08193,-2.59327 3.29733,-3.28003 3.29733,-10.51294 0,-14.19904 -7.42871,-43.80382 -12.44828,-49.60868 -7.0481,-8.15075 -18.98314,-13.16715 -31.32739,-13.16715 -9.23985,0 -13.01232,1.70678 -19.80602,8.96081 -16.74926,17.88418 -25.39993,35.2264 -23.26046,46.63078 0.86893,4.63181 4.93953,8.80179 17.04356,17.45973 18.30981,13.09686 21.52926,13.88462 40.51995,9.9148 z m 125.5042,-73.97415 c 11.3183,-3.89673 28.0618,-12.16523 28.4542,-14.05169 0.6803,-3.26971 -2.2387,-23.56004 -3.5454,-24.64449 -1.815,-1.50639 -20.8241,-3.44142 -33.8073,-3.44142 -9.4949,0 -11.4,0.30786 -13.2301,2.13797 -3.2236,3.22361 -4.4782,9.3616 -4.485,21.94284 -0.01,10.67013 0.1654,11.54646 2.7614,14.14248 6.075,6.07507 13.8637,7.35323 23.8522,3.91431 z"
         id="path4995"
         transform="scale(0.26458333)" />
    </g>
    <path
       style="fill:#ff0000;stroke-width:0.292325;filter:url(#filter511)"
       d="M 66.129113,96.279481 C 65.115372,95.329076 65.097529,95.277995 64.607486,91.923163 L 64.11163,88.528527 62.742147,87.918372 c -1.607733,-0.716302 -2.77574,-2.190855 -3.052611,-3.853761 -0.198485,-1.19223 0.09563,-2.669857 3.944364,-19.815263 2.741728,-12.213899 5.397376,-21.719074 7.112447,-25.457088 1.667259,-3.633805 4.993197,-7.424563 6.785903,-7.734274 0.871319,-0.15054 0.745506,-0.406574 4.018077,8.177112 2.774484,7.277236 7.428178,16.449806 8.781448,17.308486 0.942893,0.598293 2.067989,0.531963 4.675775,-0.27566 1.359243,-0.420956 2.496815,-0.801223 2.527915,-0.845032 0.0311,-0.04382 -0.583665,-5.100641 -1.366161,-11.237388 -0.782487,-6.136751 -1.381632,-11.460963 -1.331419,-11.831588 0.108815,-0.803197 5.656265,-7.025265 6.102205,-6.844282 0.35208,0.142898 1.84968,10.234477 3.83339,25.831158 0.70046,5.507308 1.41821,10.873915 1.59498,11.925798 l 0.32138,1.912521 2.1724,0.410893 c 2.83795,0.53678 9.02091,0.724111 11.27569,0.341632 1.9856,-0.336818 3.24704,-1.109715 3.38199,-2.072179 0.0486,-0.346767 0.63666,-1.184945 1.30675,-1.862615 0.6701,-0.677667 1.26158,-1.44714 1.31441,-1.709938 0.26551,-1.320803 -0.37802,-7.023357 -2.11416,-18.734396 -1.05327,-7.104835 -1.846,-13.252433 -1.76161,-13.661328 0.0844,-0.408895 0.51951,-1.218039 0.96691,-1.798094 1.40797,-1.825436 4.98761,-5.165977 5.36961,-5.010945 0.41527,0.168541 0.8184,3.078858 2.9662,21.414214 0.74923,6.39595 1.63785,12.964831 1.97473,14.597507 0.55501,2.690069 0.68362,3.008534 1.37072,3.395247 1.06743,0.600758 4.34239,0.949107 9.66393,1.027937 2.51392,0.03724 4.91276,0.217158 5.33074,0.39982 0.99714,0.435779 1.18684,1.593054 0.56701,3.459282 -0.26334,0.792934 -0.51646,2.477395 -0.56246,3.74325 -0.20318,5.58969 -0.49732,5.93946 -1.74191,2.071288 -0.39301,-1.221497 -0.50222,-1.327039 -1.35534,-1.309799 -0.51033,0.01031 -1.99109,0.04346 -3.29059,0.07367 -1.29948,0.0302 -3.18216,-0.05661 -4.18374,-0.192925 -1.00159,-0.136306 -1.98346,-0.222007 -2.18194,-0.190442 -0.79571,0.126556 -1.27773,1.370625 -1.18721,3.064072 0.14845,2.777038 -0.0252,3.957313 -0.5966,4.054234 -0.27922,0.04736 -0.65711,-0.01998 -0.83976,-0.149646 -0.18265,-0.12967 -1.05894,-0.24986 -1.94732,-0.267087 -0.88839,-0.01723 -1.72824,-0.111547 -1.86635,-0.209598 -0.13811,-0.09805 -0.81406,-1.415736 -1.5021,-2.92819 -0.68804,-1.512449 -1.39418,-2.875754 -1.56919,-3.029562 -0.43991,-0.386631 -2.53303,-0.330321 -3.69789,0.09948 -1.32883,0.490297 -1.57586,1.26183 -1.51037,4.717204 0.0602,3.175623 -0.0115,3.963162 -0.36598,4.023297 -0.25769,0.04371 -0.82705,-1.348252 -1.0223,-2.49932 -0.26329,-1.552108 -1.06392,-1.874351 -4.64389,-1.869096 -1.80714,0.0027 -3.81118,-0.116961 -4.45343,-0.265813 -1.67433,-0.38806 -2.75196,-0.136662 -3.11693,0.72713 -0.16701,0.395252 -0.2837,1.715948 -0.25931,2.934881 0.0244,1.218937 0.0132,2.455022 -0.0248,2.746857 -0.0813,0.623403 -1.42711,0.951987 -2.05972,0.50287 -0.22847,-0.16221 -0.98481,-0.33412 -1.68073,-0.382026 -1.12069,-0.07714 -1.39552,-0.255282 -2.40442,-1.558548 -1.51135,-1.952331 -1.96001,-2.302121 -2.775347,-2.163815 -0.878094,0.148952 -0.818204,0.483528 0.730817,4.082293 1.14273,2.654938 2.08438,6.219432 1.7627,6.672541 -0.27302,0.38457 -1.21699,-0.440235 -3.204304,-2.79979 -1.106161,-1.313383 -2.230553,-2.432057 -2.498618,-2.485944 -1.451086,-0.291703 -4.533032,0.865316 -4.8537,1.822166 -0.109546,0.326881 -0.09522,1.219237 0.03185,1.983015 0.45437,2.731212 -0.406426,2.879294 -3.214773,0.55303 L 86.544351,85.41746 85.996888,81.062798 c -1.040721,-8.278175 -2.050079,-13.862784 -2.602832,-14.401035 -0.445364,-0.433679 -0.939418,-0.427448 -4.287391,0.05409 l -3.784026,0.54425 0.270812,0.792951 c 0.148945,0.436125 0.645824,2.130311 1.104174,3.764861 0.458351,1.634548 1.430759,4.589578 2.160911,6.566731 1.547072,4.189281 1.58801,4.367003 1.18957,5.164491 -0.289617,0.579676 -0.324788,0.578966 -0.872863,-0.01764 -0.776939,-0.845741 -2.223326,-4.129447 -3.719468,-8.444245 -1.415533,-4.082324 -2.008043,-4.983948 -2.847576,-4.333154 -0.781684,0.605955 -2.071823,5.459111 -2.759192,10.379353 -0.326691,2.338482 -0.928128,6.64342 -1.336524,9.566526 -0.4084,2.923107 -0.880939,5.590697 -1.050091,5.92797 -0.291931,0.582084 -0.359648,0.564386 -1.333323,-0.348456 z M 97.697725,66.325958 c 1.480661,-1.095663 1.591241,-1.52871 1.031494,-4.039409 -0.35238,-1.580468 -0.432637,-1.699522 -1.121864,-1.663759 -1.004674,0.05213 -3.896778,2.717557 -4.108159,3.786169 -0.277407,1.402391 1.03716,3.196961 2.197643,3.000108 0.383325,-0.06502 1.283717,-0.552421 2.000886,-1.083109 z m -17.53967,-7.826309 c 0.130492,-0.183808 0.176607,-1.043562 0.102478,-1.910569 -0.250197,-2.926297 -2.500777,-6.447731 -3.962353,-6.199803 -1.029324,0.174604 -1.331017,2.395379 -0.78012,5.742523 0.540845,3.286144 0.95552,3.714319 3.012198,3.110376 0.764798,-0.224578 1.497306,-0.55872 1.627797,-0.742527 z"
       id="path5073" />
  </g>
</svg>
